<?xml version="1.0" encoding="UTF-8"?>
<svg version="1.1" xmlns="http://www.w3.org/2000/svg" width="246" height="246">
<path d="M0 0 C5.51664071 -0.15891558 10.2872434 -0.02907827 15.41015625 2.10546875 C18.41015625 5.20224294 18.41015625 5.20224294 18.41015625 8.10546875 C25.79031284 7.99793898 33.17037276 7.88529981 40.55035114 7.76612949 C43.97713853 7.71095522 47.40393453 7.65754409 50.83081055 7.6081543 C54.77010876 7.5513021 58.70926365 7.48679563 62.6484375 7.421875 C64.49541985 7.39680626 64.49541985 7.39680626 66.37971497 7.37123108 C68.09114937 7.34131325 68.09114937 7.34131325 69.8371582 7.31079102 C71.34606377 7.28747459 71.34606377 7.28747459 72.88545227 7.26368713 C75.53619678 7.20582905 75.53619678 7.20582905 78.41015625 6.10546875 C78.74015625 4.45546875 79.07015625 2.80546875 79.41015625 1.10546875 C85.69783814 -0.34736684 94.51399248 -1.9103071 100.43359375 1.15234375 C101.78515625 2.48046875 101.78515625 2.48046875 103.41015625 5.10546875 C103.41015625 5.76546875 103.41015625 6.42546875 103.41015625 7.10546875 C122.22015625 7.10546875 141.03015625 7.10546875 160.41015625 7.10546875 C160.41015625 6.44546875 160.41015625 5.78546875 160.41015625 5.10546875 C161.40015625 5.10546875 162.39015625 5.10546875 163.41015625 5.10546875 C163.74015625 4.11546875 164.07015625 3.12546875 164.41015625 2.10546875 C171.64428768 -0.43987379 180.13539144 -1.39736168 187.47265625 1.29296875 C190.92993093 3.42618078 191.28606162 4.29515736 192.41015625 8.10546875 C192.67578125 11.4453125 192.67578125 11.4453125 192.66015625 15.04296875 C192.66789062 16.81994141 192.66789062 16.81994141 192.67578125 18.6328125 C192.40875512 22.1237864 191.65728354 24.84881938 190.41015625 28.10546875 C190.00796875 29.25015625 190.00796875 29.25015625 189.59765625 30.41796875 C188.41015625 32.10546875 188.41015625 32.10546875 183.41015625 33.10546875 C183.41015625 48.94546875 183.41015625 64.78546875 183.41015625 81.10546875 C185.72015625 81.43546875 188.03015625 81.76546875 190.41015625 82.10546875 C193.47128975 85.40207406 192.70356494 90.34418266 192.66015625 94.60546875 C192.66789063 95.36472656 192.675625 96.12398438 192.68359375 96.90625 C192.65834204 104.11561342 192.65834204 104.11561342 190.41015625 107.10546875 C189.60578125 107.33234375 188.80140625 107.55921875 187.97265625 107.79296875 C184.77858773 109.42895506 184.68680584 110.40596928 183.59765625 113.73046875 C183.18282814 115.18351306 182.78090541 116.64055742 182.41015625 118.10546875 C180.93106465 118.27280032 179.45188069 118.43931561 177.97265625 118.60546875 C177.14894531 118.69828125 176.32523438 118.79109375 175.4765625 118.88671875 C173.41015625 119.10546875 173.41015625 119.10546875 172.41015625 119.10546875 C172.08015625 117.12546875 171.75015625 115.14546875 171.41015625 113.10546875 C170.42015625 113.10546875 169.43015625 113.10546875 168.41015625 113.10546875 C168.74015625 111.78546875 169.07015625 110.46546875 169.41015625 109.10546875 C168.77078125 108.81671875 168.13140625 108.52796875 167.47265625 108.23046875 C165.41015625 107.10546875 165.41015625 107.10546875 164.41015625 105.10546875 C164.14538643 101.81991599 164.17864175 98.52550989 164.16015625 95.23046875 C164.13953125 94.31910156 164.11890625 93.40773438 164.09765625 92.46875 C164.08992188 91.14810547 164.08992188 91.14810547 164.08203125 89.80078125 C164.07268555 88.99656738 164.06333984 88.19235352 164.05371094 87.36376953 C164.51115363 84.46558812 165.28634312 83.12801014 167.41015625 81.10546875 C169.06015625 81.10546875 170.71015625 81.10546875 172.41015625 81.10546875 C172.08015625 64.93546875 171.75015625 48.76546875 171.41015625 32.10546875 C170.09015625 32.43546875 168.77015625 32.76546875 167.41015625 33.10546875 C167.74015625 32.11546875 168.07015625 31.12546875 168.41015625 30.10546875 C166.76015625 29.77546875 165.11015625 29.44546875 163.41015625 29.10546875 C162.42015625 25.80546875 161.43015625 22.50546875 160.41015625 19.10546875 C153.48015625 19.10546875 146.55015625 19.10546875 139.41015625 19.10546875 C139.41015625 20.09546875 139.41015625 21.08546875 139.41015625 22.10546875 C140.126875 22.36328125 140.84359375 22.62109375 141.58203125 22.88671875 C144.57354426 24.17587905 147.0024323 25.72755602 149.66015625 27.60546875 C150.5315625 28.21390625 151.40296875 28.82234375 152.30078125 29.44921875 C154.41015625 31.10546875 154.41015625 31.10546875 155.41015625 33.10546875 C155.79877553 36.68076614 155.91535444 38.43187116 153.72265625 41.35546875 C151.35177531 43.14964892 149.22112712 44.16847846 146.41015625 45.10546875 C146.41015625 44.44546875 146.41015625 43.78546875 146.41015625 43.10546875 C145.64703125 42.94046875 144.88390625 42.77546875 144.09765625 42.60546875 C140.65444969 40.68367904 140.6271255 38.85800799 139.4609375 35.26171875 C136.09518824 28.35505112 126.39321769 23.56442849 119.41015625 21.10546875 C114.76293904 20.17505613 110.12614619 19.56075885 105.41015625 19.10546875 C105.29800781 20.02585937 105.18585938 20.94625 105.0703125 21.89453125 C104.17007719 26.27319057 102.40480083 27.88046689 99.41015625 31.10546875 C98.91515625 30.11546875 98.91515625 30.11546875 98.41015625 29.10546875 C96.76015625 29.10546875 95.11015625 29.10546875 93.41015625 29.10546875 C93.41015625 29.76546875 93.41015625 30.42546875 93.41015625 31.10546875 C91.43015625 31.10546875 89.45015625 31.10546875 87.41015625 31.10546875 C87.41015625 30.77546875 87.41015625 30.44546875 87.41015625 30.10546875 C86.31703125 29.87859375 85.22390625 29.65171875 84.09765625 29.41796875 C80.41015625 28.10546875 80.41015625 28.10546875 78.47265625 25.73046875 C77.41015625 23.10546875 77.41015625 23.10546875 77.41015625 19.10546875 C64.85953299 19.35025041 55.44631372 23.11592452 45.46875 30.65234375 C43.41015625 32.10546875 43.41015625 32.10546875 40.41015625 33.10546875 C40.63703125 33.66234375 40.86390625 34.21921875 41.09765625 34.79296875 C41.54309328 38.08920277 40.34324516 39.48199094 38.41015625 42.10546875 C35.41015625 44.10546875 35.41015625 44.10546875 32.41015625 43.98046875 C29.41015625 43.10546875 29.41015625 43.10546875 27.53515625 41.48046875 C25.94251174 38.11821923 25.9582873 35.78497305 26.41015625 32.10546875 C29.10428351 28.0926703 32.0546255 25.78561242 36.16015625 23.29296875 C37.63742188 22.38611328 37.63742188 22.38611328 39.14453125 21.4609375 C39.8921875 21.01363281 40.63984375 20.56632812 41.41015625 20.10546875 C40.40455831 18.87762066 40.40455831 18.87762066 38.36889648 18.99194336 C37.05707397 18.99979858 37.05707397 18.99979858 35.71875 19.0078125 C34.30239258 19.01264648 34.30239258 19.01264648 32.85742188 19.01757812 C31.36758789 19.03014648 31.36758789 19.03014648 29.84765625 19.04296875 C28.85056641 19.04748047 27.85347656 19.05199219 26.82617188 19.05664062 C24.35410776 19.06846868 21.88216107 19.08495026 19.41015625 19.10546875 C19.10851562 20.38550781 18.806875 21.66554688 18.49609375 22.984375 C17.25658482 28.24434238 17.25658482 28.24434238 14.41015625 30.10546875 C13.081547 30.45715943 11.74857297 30.79317151 10.41015625 31.10546875 C9.21192753 33.50192619 9.2538831 35.06208902 9.20483398 37.73876953 C9.18488876 38.69961456 9.16494354 39.66045959 9.14439392 40.65042114 C9.11932518 42.2098494 9.11932518 42.2098494 9.09375 43.80078125 C9.0729689 44.86336151 9.05218781 45.92594177 9.03077698 47.02072144 C8.96525364 50.42390313 8.90638352 53.82716364 8.84765625 57.23046875 C8.80447368 59.53386241 8.76085948 61.83724801 8.71679688 64.140625 C8.60956943 69.79548896 8.50780823 75.45043178 8.41015625 81.10546875 C9.52559814 81.06494385 10.64104004 81.02441895 11.7902832 80.98266602 C15.41015625 81.10546875 15.41015625 81.10546875 17.328125 83.0703125 C18.74385857 87.04152183 18.81239982 90.48591828 18.72265625 94.66796875 C18.72749023 95.80008789 18.72749023 95.80008789 18.73242188 96.95507812 C18.66448473 103.96495597 18.66448473 103.96495597 16.41015625 107.10546875 C13.75602864 108.94294171 11.47654479 110.08333924 8.41015625 111.10546875 C8.41015625 125.95546875 8.41015625 140.80546875 8.41015625 156.10546875 C11.38015625 156.43546875 14.35015625 156.76546875 17.41015625 157.10546875 C19.29359557 160.87234739 19.6307346 162.13505838 19.41015625 166.10546875 C20.73015625 166.10546875 22.05015625 166.10546875 23.41015625 166.10546875 C23.41015625 165.44546875 23.41015625 164.78546875 23.41015625 164.10546875 C24.07015625 164.43546875 24.73015625 164.76546875 25.41015625 165.10546875 C25.08015625 165.76546875 24.75015625 166.42546875 24.41015625 167.10546875 C49.65515625 166.61046875 49.65515625 166.61046875 75.41015625 166.10546875 C76.07015625 163.79546875 76.73015625 161.48546875 77.41015625 159.10546875 C80.04013961 155.47395103 83.33055902 155.057007 87.57421875 154.34765625 C92.44705399 153.93151881 96.92609422 154.00055368 101.41015625 156.10546875 C103.52820357 158.92953184 105.41015625 162.46700186 105.41015625 166.10546875 C107.39015625 166.43546875 109.37015625 166.76546875 111.41015625 167.10546875 C110.91493455 170.7701093 110.38933565 172.81379229 107.41015625 175.10546875 C106.42015625 175.43546875 105.43015625 175.76546875 104.41015625 176.10546875 C103.95640625 177.21921875 103.50265625 178.33296875 103.03515625 179.48046875 C101.22329994 183.52230205 100.45109052 184.48909504 96.41015625 186.10546875 C90.43177463 187.40078477 85.18615485 187.30081781 79.41015625 185.10546875 C77.34765625 183.23046875 77.34765625 183.23046875 76.41015625 181.10546875 C76.41015625 179.78546875 76.41015625 178.46546875 76.41015625 177.10546875 C75.42015625 177.43546875 74.43015625 177.76546875 73.41015625 178.10546875 C71.67669818 178.19331935 69.94002356 178.22311689 68.2043457 178.21899414 C66.61303581 178.21888084 66.61303581 178.21888084 64.98957825 178.21876526 C63.8457518 178.21360397 62.70192535 178.20844269 61.5234375 178.203125 C60.35129196 178.20171005 59.17914642 178.2002951 57.97148132 178.19883728 C54.22184718 178.19323263 50.4722724 178.18067931 46.72265625 178.16796875 C44.18294357 178.16295435 41.64322995 178.15839134 39.10351562 178.15429688 C32.87237552 178.14326169 26.64127013 178.126519 20.41015625 178.10546875 C19.95511719 179.23355957 19.50007813 180.36165039 19.03125 181.52392578 C17.41015625 185.10546875 17.41015625 185.10546875 15.47265625 186.41015625 C14.79203125 186.59835938 14.11140625 186.7865625 13.41015625 186.98046875 C12.38921875 187.28597656 12.38921875 187.28597656 11.34765625 187.59765625 C10.38859375 187.84902344 10.38859375 187.84902344 9.41015625 188.10546875 C8.42015625 188.43546875 7.43015625 188.76546875 6.41015625 189.10546875 C4.28515625 188.85546875 4.28515625 188.85546875 1.41015625 188.10546875 C0.67796875 187.93144531 -0.05421875 187.75742188 -0.80859375 187.578125 C-1.60265625 187.36027344 -2.39671875 187.14242187 -3.21484375 186.91796875 C-4.34792969 186.61826172 -4.34792969 186.61826172 -5.50390625 186.3125 C-8.67534115 184.47734385 -9.3483162 182.51869654 -10.58984375 179.10546875 C-10.96617693 176.21546776 -10.96549944 173.39068282 -10.90234375 170.48046875 C-10.90556641 169.73023438 -10.90878906 168.98 -10.91210938 168.20703125 C-10.83849974 160.65869774 -10.83849974 160.65869774 -8.58984375 158.10546875 C-6.59909685 157.72071181 -4.59825587 157.38366267 -2.58984375 157.10546875 C-2.70727996 150.87567025 -2.83211409 144.6460519 -2.9621582 138.41650391 C-3.00554127 136.29609562 -3.04721382 134.17565163 -3.0871582 132.05517578 C-3.14477918 129.01193467 -3.208497 125.96887385 -3.2734375 122.92578125 C-3.29014999 121.97365753 -3.30686249 121.02153381 -3.32408142 120.04055786 C-3.34402664 119.15979584 -3.36397186 118.27903381 -3.38452148 117.37158203 C-3.40006577 116.59436798 -3.41561005 115.81715393 -3.43162537 115.01638794 C-3.47767626 113.0198994 -3.47767626 113.0198994 -4.58984375 111.10546875 C-5.24984375 110.77546875 -5.90984375 110.44546875 -6.58984375 110.10546875 C-6.09484375 109.11546875 -6.09484375 109.11546875 -5.58984375 108.10546875 C-6.22921875 107.83734375 -6.86859375 107.56921875 -7.52734375 107.29296875 C-9.58984375 106.10546875 -9.58984375 106.10546875 -10.58984375 103.10546875 C-10.66035489 100.36681588 -10.6834214 97.65519287 -10.65234375 94.91796875 C-10.64783203 94.16837891 -10.64332031 93.41878906 -10.63867188 92.64648438 C-10.62690729 90.79944492 -10.6089724 88.95244662 -10.58984375 87.10546875 C-11.24984375 86.77546875 -11.90984375 86.44546875 -12.58984375 86.10546875 C-11.59984375 86.10546875 -10.60984375 86.10546875 -9.58984375 86.10546875 C-9.25984375 84.78546875 -8.92984375 83.46546875 -8.58984375 82.10546875 C-5.61984375 81.61046875 -5.61984375 81.61046875 -2.58984375 81.10546875 C-2.70725257 74.16360758 -2.83208716 67.22190883 -2.9621582 60.28027344 C-3.00554891 57.91734874 -3.04722088 55.55439184 -3.0871582 53.19140625 C-3.14476068 49.80068239 -3.20848385 46.41012125 -3.2734375 43.01953125 C-3.29014999 41.95803864 -3.30686249 40.89654602 -3.32408142 39.80288696 C-3.34402664 38.82202118 -3.36397186 37.8411554 -3.38452148 36.83056641 C-3.40783791 35.53150864 -3.40783791 35.53150864 -3.43162537 34.20620728 C-3.46080967 32.04788982 -3.46080967 32.04788982 -4.58984375 30.10546875 C-5.92061364 29.76204426 -7.25416354 29.42927001 -8.58984375 29.10546875 C-11.61195675 26.08335575 -11.17780842 22.54813786 -11.40234375 18.48046875 C-11.49805664 17.30677734 -11.49805664 17.30677734 -11.59570312 16.109375 C-11.93401758 10.36279423 -11.08898421 6.31445004 -8.58984375 1.10546875 C-5.64288375 -0.07331525 -3.1347378 0.12765901 0 0 Z M87.41015625 12.10546875 C87.41015625 14.41546875 87.41015625 16.72546875 87.41015625 19.10546875 C90.05015625 19.10546875 92.69015625 19.10546875 95.41015625 19.10546875 C95.41015625 16.79546875 95.41015625 14.48546875 95.41015625 12.10546875 C92.77015625 12.10546875 90.13015625 12.10546875 87.41015625 12.10546875 Z M173.41015625 12.10546875 C171.99438148 13.28971201 171.99438148 13.28971201 172.34765625 16.66796875 C172.36828125 17.80234375 172.38890625 18.93671875 172.41015625 20.10546875 C175.38015625 20.10546875 178.35015625 20.10546875 181.41015625 20.10546875 C181.41015625 17.79546875 181.41015625 15.48546875 181.41015625 13.10546875 C181.08015625 13.10546875 180.75015625 13.10546875 180.41015625 13.10546875 C180.41015625 15.08546875 180.41015625 17.06546875 180.41015625 19.10546875 C180.08015625 18.11546875 179.75015625 17.12546875 179.41015625 16.10546875 C178.75015625 15.77546875 178.09015625 15.44546875 177.41015625 15.10546875 C177.74015625 14.44546875 178.07015625 13.78546875 178.41015625 13.10546875 C176.75400968 12.72328108 175.08558601 12.39151773 173.41015625 12.10546875 Z M-0.58984375 13.10546875 C-0.58984375 15.74546875 -0.58984375 18.38546875 -0.58984375 21.10546875 C3.41270081 21.19728009 3.41270081 21.19728009 7.41015625 21.10546875 C8.82593102 19.92122549 8.82593102 19.92122549 8.47265625 16.54296875 C8.45203125 15.40859375 8.43140625 14.27421875 8.41015625 13.10546875 C3.79507851 12.06332184 3.79507851 12.06332184 -0.58984375 13.10546875 Z M-0.58984375 92.10546875 C-0.63048207 93.7716399 -0.63256475 95.4393497 -0.58984375 97.10546875 C1.12438515 98.33942916 1.12438515 98.33942916 3.41015625 99.10546875 C6.12948555 98.31844524 6.12948555 98.31844524 8.41015625 97.10546875 C8.41015625 95.45546875 8.41015625 93.80546875 8.41015625 92.10546875 C5.84843574 90.82460849 1.6307059 89.8849191 -0.58984375 92.10546875 Z M173.41015625 92.10546875 C174.40015625 92.43546875 175.39015625 92.76546875 176.41015625 93.10546875 C175.42015625 93.76546875 174.43015625 94.42546875 173.41015625 95.10546875 C173.41015625 96.09546875 173.41015625 97.08546875 173.41015625 98.10546875 C176.38015625 98.10546875 179.35015625 98.10546875 182.41015625 98.10546875 C182.41015625 96.12546875 182.41015625 94.14546875 182.41015625 92.10546875 C179.44015625 92.10546875 176.47015625 92.10546875 173.41015625 92.10546875 Z M86.41015625 168.10546875 C87.07015625 170.41546875 87.73015625 172.72546875 88.41015625 175.10546875 C90.39015625 175.10546875 92.37015625 175.10546875 94.41015625 175.10546875 C95.38623842 172.17722223 95.49242293 170.14933599 95.41015625 167.10546875 C91.63117974 166.05575305 89.76096554 165.99569994 86.41015625 168.10546875 Z M0.41015625 168.10546875 C0.41015625 170.41546875 0.41015625 172.72546875 0.41015625 175.10546875 C3.98660473 176.34347015 6.74710391 175.85472946 10.41015625 175.10546875 C10.41015625 173.12546875 10.41015625 171.14546875 10.41015625 169.10546875 C5.46266273 167.15515267 5.46266273 167.15515267 0.41015625 168.10546875 Z M86.41015625 171.10546875 C87.41015625 173.10546875 87.41015625 173.10546875 87.41015625 173.10546875 Z " fill="#989899" transform="translate(20.58984375,11.89453125)"/>
<path d="M0 0 C2.0625 1.5 2.0625 1.5 2.74487305 3.31689453 C3.10821989 5.81424075 2.8152374 7.48495252 2.20703125 9.9296875 C1.89451416 11.2288208 1.89451416 11.2288208 1.57568359 12.55419922 C1.34445801 13.48506348 1.11323242 14.41592773 0.875 15.375 C-3.05882214 31.97929318 -6.0834967 48.57290394 -7.81103516 65.55810547 C-7.91593262 66.50830566 -8.02083008 67.45850586 -8.12890625 68.4375 C-8.21342041 69.27152344 -8.29793457 70.10554688 -8.38500977 70.96484375 C-9.11203592 74.30087538 -10.06129754 76.6261764 -11.9375 79.5 C-14.39914509 80.99101974 -16.52960926 82.08076592 -19.16015625 83.1484375 C-19.8614415 83.45069244 -20.56272675 83.75294739 -21.28526306 84.06436157 C-23.51606394 85.01999118 -25.75750843 85.94718867 -28 86.875 C-29.51181076 87.52039763 -31.02288828 88.1675157 -32.53320312 88.81640625 C-43.53219946 93.5 -43.53219946 93.5 -45.9375 93.5 C-45.9375 94.16 -45.9375 94.82 -45.9375 95.5 C-48.5775 95.17 -51.2175 94.84 -53.9375 94.5 C-55.5875 97.47 -57.2375 100.44 -58.9375 103.5 C-60.9175 103.5 -62.8975 103.5 -64.9375 103.5 C-64.9375 102.84 -64.9375 102.18 -64.9375 101.5 C-65.5975 101.5 -66.2575 101.5 -66.9375 101.5 C-68.70400562 99.4315276 -70.36051925 97.35343748 -72 95.1875 C-72.99016605 93.90569398 -73.98106201 92.6244515 -74.97265625 91.34375 C-75.46910645 90.69921875 -75.96555664 90.0546875 -76.47705078 89.390625 C-78.60550869 86.63522914 -80.76022439 83.90462555 -82.9375 81.1875 C-83.63875 80.30449219 -84.34 79.42148438 -85.0625 78.51171875 C-86.86202935 76.25939022 -86.86202935 76.25939022 -89.9375 75.5 C-90.80375 74.3553125 -90.80375 74.3553125 -91.6875 73.1875 C-94.47579663 69.85703458 -97.10279752 68.49109552 -100.9375 66.5 C-100.625 64.5625 -100.625 64.5625 -99.9375 62.5 C-98.4525 62.005 -98.4525 62.005 -96.9375 61.5 C-96.9375 60.84 -96.9375 60.18 -96.9375 59.5 C-96.18984375 58.78328125 -95.4421875 58.0665625 -94.671875 57.328125 C-91.68287045 54.23664029 -89.97659138 51.09363641 -88.1875 47.25 C-87.5001344 45.83393724 -86.81127681 44.41859793 -86.12109375 43.00390625 C-85.76644043 42.27059082 -85.41178711 41.53727539 -85.04638672 40.78173828 C-83.1572149 36.89441996 -81.22189951 33.03345035 -79.25 29.1875 C-78.89389648 28.4646582 -78.53779297 27.74181641 -78.17089844 26.99707031 C-76.03859292 22.86831254 -74.39565709 20.35645646 -69.9375 18.5 C-66.89453125 17.8046875 -66.89453125 17.8046875 -63.75 17.375 C-59.70535305 16.88161518 -59.70535305 16.88161518 -55.9375 15.5 C-54.1740625 15.5928125 -54.1740625 15.5928125 -52.375 15.6875 C-35.73832469 15.76710132 -18.9962121 7.97176201 -4.66015625 0.18554688 C-2.9375 -0.5 -2.9375 -0.5 0 0 Z M-18.3984375 17.57421875 C-19.84089844 18.37279297 -19.84089844 18.37279297 -21.3125 19.1875 C-29.60896373 23.44917935 -37.44302611 26.16277643 -46.69921875 27.19921875 C-48.23775513 27.37191284 -48.23775513 27.37191284 -49.80737305 27.5480957 C-51.86216296 27.76269392 -53.91991256 27.95092194 -55.97973633 28.11010742 C-60.51984383 28.56224225 -63.1611997 28.83915513 -66.6953125 31.84765625 C-67.48955135 33.03507556 -68.22995641 34.25896735 -68.9375 35.5 C-69.46698242 36.37720703 -69.99646484 37.25441406 -70.54199219 38.15820312 C-72.36370552 41.26066671 -74.09428002 44.40165949 -75.8125 47.5625 C-76.41835937 48.63822266 -77.02421875 49.71394531 -77.6484375 50.82226562 C-78.215625 51.86189453 -78.7828125 52.90152344 -79.3671875 53.97265625 C-79.88522949 54.91375244 -80.40327148 55.85484863 -80.93701172 56.82446289 C-82.09301977 59.91589585 -81.94631792 61.39643276 -80.9375 64.5 C-79.74461203 66.3818637 -79.74461203 66.3818637 -78.1875 68 C-77.64222656 68.60199219 -77.09695312 69.20398438 -76.53515625 69.82421875 C-75.25047078 71.17172502 -73.94147064 72.49602936 -72.625 73.8125 C-69.29442501 77.14307499 -66.27182001 80.70776153 -63.21875 84.29296875 C-60.80182545 86.63126048 -59.21902676 87.7719275 -55.9375 88.5 C-53.86939045 87.68151138 -53.86939045 87.68151138 -52 86.0625 C-48.15212419 83.25528509 -44.20562689 80.97224464 -39.9375 78.875 C-39.33574951 78.57899902 -38.73399902 78.28299805 -38.11401367 77.97802734 C-34.050837 76.00146638 -29.95556313 74.10893376 -25.8046875 72.32421875 C-25.18851563 72.05222656 -24.57234375 71.78023437 -23.9375 71.5 C-22.93456909 71.20343506 -22.93456909 71.20343506 -21.91137695 70.90087891 C-19.59844507 69.56978403 -19.59844507 69.56978403 -19.0402832 66.32299805 C-18.83779445 64.97187997 -18.65506779 63.61770695 -18.48828125 62.26171875 C-18.38533249 61.54393753 -18.28238373 60.82615631 -18.17631531 60.08662415 C-17.85047734 57.78891999 -17.54976417 55.48873686 -17.25 53.1875 C-17.03749949 51.64885389 -16.8233258 50.11043786 -16.60742188 48.57226562 C-16.30238446 46.39774862 -15.99977753 44.22323039 -15.71052551 42.04655457 C-15.23800257 38.50007887 -14.68872639 34.9985445 -13.9375 31.5 C-14.98550781 32.55960938 -14.98550781 32.55960938 -16.0546875 33.640625 C-17.98027234 35.57028084 -19.9439497 37.44609706 -21.9453125 39.296875 C-28.06187999 45.04376514 -31.91265708 49.13064926 -33.9375 57.5 C-37.95993975 60.1816265 -41.21015002 60.18957829 -45.9375 59.5 C-49.27350367 57.44161475 -50.7637176 55.7606736 -52.9375 52.5 C-52.68736276 48.95519796 -51.65788819 45.58058228 -49.6875 42.625 C-46.37363547 40.49465852 -42.96353012 39.58922001 -39.0625 39.25 C-34.59598026 38.17803526 -31.24240539 35.66230795 -27.9375 32.5 C-27.9375 31.84 -27.9375 31.18 -27.9375 30.5 C-27.39609375 30.28601563 -26.8546875 30.07203125 -26.296875 29.8515625 C-23.0982203 28.01922057 -20.72785516 25.50203394 -18.1875 22.875 C-17.68089844 22.359375 -17.17429687 21.84375 -16.65234375 21.3125 C-15.40946098 20.04616661 -14.17284724 18.7736856 -12.9375 17.5 C-15.87903017 16.14763112 -15.87903017 16.14763112 -18.3984375 17.57421875 Z " fill="#999A9B" transform="translate(238.9375,125.5)"/>
<path d="M0 0 C2.05782056 -0.21692984 4.12226213 -0.37163893 6.1875 -0.5 C7.91033203 -0.63921875 7.91033203 -0.63921875 9.66796875 -0.78125 C13.36358618 0.08524881 13.63340928 0.33038654 15.5625 3.34375 C16.39997298 4.88250207 17.2104406 6.43612185 18 8 C18.46768799 8.86689453 18.93537598 9.73378906 19.41723633 10.62695312 C20.91024241 13.40422572 22.36541107 16.19855948 23.8125 19 C24.56563477 20.44826172 24.56563477 20.44826172 25.33398438 21.92578125 C26.55893211 24.28234737 27.78086415 26.6404235 29 29 C31.80549598 25.66316295 33.99930403 22.39536395 35.98046875 18.515625 C36.76647461 16.99001953 36.76647461 16.99001953 37.56835938 15.43359375 C38.10267578 14.38300781 38.63699219 13.33242187 39.1875 12.25 C40.26276775 10.15024455 41.33950938 8.05124298 42.41796875 5.953125 C42.89000732 5.02661133 43.3620459 4.10009766 43.84838867 3.14550781 C45 1 45 1 46 0 C48.35313555 -0.07271741 50.70833668 -0.08370868 53.0625 -0.0625 C54.35285156 -0.05347656 55.64320312 -0.04445313 56.97265625 -0.03515625 C57.97167969 -0.02355469 58.97070312 -0.01195313 60 0 C61.38425411 2.76850823 61.11959962 5.00419184 61.11352539 8.10205078 C61.11344986 9.38322784 61.11337433 10.66440491 61.11329651 11.98440552 C61.10818948 13.38804157 61.10297348 14.79167723 61.09765625 16.1953125 C61.09579146 17.62734935 61.09436784 19.05938684 61.09336853 20.49142456 C61.08954819 24.26273354 61.07972202 28.03400407 61.06866455 31.80529785 C61.05844005 35.65274536 61.05386868 39.50019907 61.04882812 43.34765625 C61.03809932 50.89845706 61.02050643 58.44921825 61 66 C56.05 66 51.1 66 46 66 C45.97289125 61.99995394 45.95310795 58.00009388 45.9375 54 C45.92912109 52.87464844 45.92074219 51.74929687 45.91210938 50.58984375 C45.89466584 44.62415603 46.08218777 38.89712427 47 33 C46.01 32.505 46.01 32.505 45 32 C45.66 32 46.32 32 47 32 C46.505 30.02 46.505 30.02 46 28 C45.68248779 28.59014893 45.36497559 29.18029785 45.0378418 29.78833008 C43.59319761 32.46604645 42.14045413 35.13928426 40.6875 37.8125 C40.18798828 38.74126953 39.68847656 39.67003906 39.17382812 40.62695312 C38.68720703 41.51962891 38.20058594 42.41230469 37.69921875 43.33203125 C37.03152466 44.56530151 37.03152466 44.56530151 36.3503418 45.82348633 C34.27412606 49.16998122 33.0097889 50.75852874 29.125 51.6875 C26 51 26 51 24.67578125 49.5234375 C23.33304433 47.39708439 22.15398834 45.23447424 21 43 C20.10884836 41.35162702 19.21311258 39.70572296 18.3125 38.0625 C17.91675781 37.31097656 17.52101563 36.55945313 17.11328125 35.78515625 C16.11641534 33.84058707 16.11641534 33.84058707 14 33 C13.97494385 33.96413818 13.9498877 34.92827637 13.92407227 35.92163086 C13.83014694 39.48687842 13.72989061 43.05192433 13.62768555 46.61694336 C13.58428015 48.16214289 13.54260929 49.70739214 13.50268555 51.25268555 C13.44511801 53.46939096 13.38138576 55.6858448 13.31640625 57.90234375 C13.29133751 58.94454323 13.29133751 58.94454323 13.26576233 60.00779724 C13.11387171 64.88612829 13.11387171 64.88612829 12 66 C9.81360547 66.07258946 7.62499611 66.08373783 5.4375 66.0625 C4.23996094 66.05347656 3.04242188 66.04445313 1.80859375 66.03515625 C0.41833984 66.01775391 0.41833984 66.01775391 -1 66 C-1.02314315 57.68998125 -1.04092518 49.37997592 -1.05181217 41.06993294 C-1.05703667 37.2114867 -1.06412649 33.35306247 -1.07543945 29.49462891 C-1.08628368 25.7728847 -1.09228011 22.0511617 -1.09487724 18.32940292 C-1.09672871 16.90759828 -1.10034403 15.48579483 -1.10573006 14.06399918 C-1.11296072 12.0766945 -1.11340823 10.08936861 -1.11352539 8.10205078 C-1.115746 6.96953888 -1.11796661 5.83702698 -1.12025452 4.67019653 C-1 2 -1 2 0 0 Z M13 28 C14 30 14 30 14 30 Z " fill="#959596" transform="translate(52,68)"/>
<path d="M0 0 C1.25955231 3.77865693 0.48087189 5.03411786 -0.9375 8.6875 C-1.50791016 10.17830078 -1.50791016 10.17830078 -2.08984375 11.69921875 C-2.39019531 12.45847656 -2.69054687 13.21773437 -3 14 C-5.64137718 13.54719248 -7.98156665 13.00752501 -10.46875 11.9921875 C-14.84314593 10.27753231 -19.31872293 9.81752143 -24 10 C-27.22941357 11.50978123 -27.22941357 11.50978123 -29 14 C-29 14.99 -29 15.98 -29 17 C-28.29915283 17.2266333 -27.59830566 17.4532666 -26.8762207 17.68676758 C-23.68620325 18.72230241 -20.49936215 19.76729708 -17.3125 20.8125 C-16.20970703 21.16892578 -15.10691406 21.52535156 -13.97070312 21.89257812 C-12.3706543 22.41948242 -12.3706543 22.41948242 -10.73828125 22.95703125 C-9.75899658 23.27647705 -8.77971191 23.59592285 -7.77075195 23.92504883 C-3.37737523 25.62951951 -0.62205413 26.91140527 1.75 31.0625 C4.20652061 37.86077796 5.00628792 43.68901101 1.875 50.375 C-2.22211995 57.56747155 -7.74077724 60.29031867 -15.3671875 62.76953125 C-25.50624809 65.34190419 -35.44885943 62.19021348 -44.4375 57.25 C-45.63578159 56.51734901 -46.82845227 55.77468197 -48 55 C-47.40099158 51.45008694 -46.44788874 48.45188857 -44.9375 45.1875 C-44.57527344 44.39730469 -44.21304688 43.60710937 -43.83984375 42.79296875 C-43.56269531 42.20128906 -43.28554687 41.60960937 -43 41 C-42.28457031 41.433125 -41.56914063 41.86625 -40.83203125 42.3125 C-33.14925759 46.60610701 -26.79658921 48.27061844 -18 47 C-14.85925265 45.78820151 -14.85925265 45.78820151 -13 43.125 C-12.79165506 40.8846671 -12.79165506 40.8846671 -14.41796875 39.05078125 C-18.65388347 35.68640118 -23.67218889 34.78258485 -28.82617188 33.37695312 C-35.32867852 31.49343305 -40.43394981 29.07926023 -44.875 23.75 C-47.06111223 18.40617011 -47.71925481 13.29324314 -45.875 7.75 C-43.04379888 1.32240827 -38.07862537 -1.96068732 -32 -5 C-22.08207785 -8.2166234 -8.4795513 -6.07845386 0 0 Z " fill="#99999A" transform="translate(167,73)"/>
<path d="M0 0 C4.53702523 0.58912469 4.53702523 0.58912469 6.52734375 2.35546875 C6.99269531 2.96003906 7.45804688 3.56460938 7.9375 4.1875 C12.06275532 9.24277939 16.69284499 13.7201864 21.37670898 18.25073242 C21.97298096 18.8357251 22.56925293 19.42071777 23.18359375 20.0234375 C23.72556396 20.54856934 24.26753418 21.07370117 24.82592773 21.61474609 C26 23 26 23 26 25 C28.93720508 26.52299523 31.9168649 27.80100302 35 29 C34.67 30.32 34.34 31.64 34 33 C32.20841511 33.02696365 30.41671527 33.04637917 28.625 33.0625 C27.62726563 33.07410156 26.62953125 33.08570313 25.6015625 33.09765625 C23 33 23 33 21 32 C19.35643193 31.90414869 17.70885358 31.87016489 16.0625 31.875 C15.18722656 31.87242187 14.31195313 31.86984375 13.41015625 31.8671875 C10.85540944 31.90177997 10.85540944 31.90177997 8 33 C6.33333333 32.66666667 4.66666667 32.33333333 3 32 C2.01 32.33 1.02 32.66 0 33 C0 32.34 0 31.68 0 31 C-0.59167969 31.16757813 -1.18335938 31.33515625 -1.79296875 31.5078125 C-9.64147627 33.53075571 -9.64147627 33.53075571 -14 31 C-14 31.66 -14 32.32 -14 33 C-15.918125 32.7525 -15.918125 32.7525 -17.875 32.5 C-22.9284158 31.92958264 -27.92062649 31.90456292 -33 32 C-33 28 -33 28 -31.0859375 26.0625 C-29.74402344 25.0415625 -29.74402344 25.0415625 -28.375 24 C-26.88033203 22.83210938 -26.88033203 22.83210938 -25.35546875 21.640625 C-24.8145459 21.21974609 -24.27362305 20.79886719 -23.71630859 20.36523438 C-20.63361031 17.91310795 -17.66641481 15.32635875 -14.6875 12.75 C-13.0011413 11.29521373 -11.31389496 9.84157527 -9.62255859 8.39257812 C-8.516723 7.44348299 -7.41565843 6.4888072 -6.31884766 5.52929688 C-2.222431 2 -2.222431 2 0 2 C0 1.34 0 0.68 0 0 Z " fill="#98999A" transform="translate(130,196)"/>
<path d="M0 0 C2.0625 1.5 2.0625 1.5 2.74487305 3.31689453 C3.10821989 5.81424075 2.8152374 7.48495252 2.20703125 9.9296875 C1.89451416 11.2288208 1.89451416 11.2288208 1.57568359 12.55419922 C1.34445801 13.48506348 1.11323242 14.41592773 0.875 15.375 C-3.05882214 31.97929318 -6.0834967 48.57290394 -7.81103516 65.55810547 C-7.91593262 66.50830566 -8.02083008 67.45850586 -8.12890625 68.4375 C-8.21342041 69.27152344 -8.29793457 70.10554688 -8.38500977 70.96484375 C-9.11203592 74.30087538 -10.06129754 76.6261764 -11.9375 79.5 C-14.39914509 80.99101974 -16.52960926 82.08076592 -19.16015625 83.1484375 C-20.21208412 83.60181992 -20.21208412 83.60181992 -21.28526306 84.06436157 C-23.51606394 85.01999118 -25.75750843 85.94718867 -28 86.875 C-29.51181076 87.52039763 -31.02288828 88.1675157 -32.53320312 88.81640625 C-43.53219946 93.5 -43.53219946 93.5 -45.9375 93.5 C-45.9375 94.16 -45.9375 94.82 -45.9375 95.5 C-48.5775 95.17 -51.2175 94.84 -53.9375 94.5 C-55.5875 97.47 -57.2375 100.44 -58.9375 103.5 C-60.9175 103.5 -62.8975 103.5 -64.9375 103.5 C-64.9375 102.84 -64.9375 102.18 -64.9375 101.5 C-65.5975 101.5 -66.2575 101.5 -66.9375 101.5 C-68.53928593 99.71895282 -70.07131926 97.87462722 -71.5625 96 C-72.78839844 94.46859375 -72.78839844 94.46859375 -74.0390625 92.90625 C-74.66554687 92.1121875 -75.29203125 91.318125 -75.9375 90.5 C-75.4425 89.51 -75.4425 89.51 -74.9375 88.5 C-74.28523437 89.2940625 -73.63296875 90.088125 -72.9609375 90.90625 C-72.07902771 91.93827209 -71.19616455 92.96948002 -70.3125 94 C-69.88582031 94.52464844 -69.45914063 95.04929687 -69.01953125 95.58984375 C-66.55852472 98.41816469 -65.3926666 99.45309759 -61.6015625 99.84375 C-60.72242188 99.7303125 -59.84328125 99.616875 -58.9375 99.5 C-57.89415529 96.67683197 -57.47844368 95.41605093 -57.9375 92.5 C-59.86048694 89.78332742 -62.03825954 87.52091386 -64.3671875 85.14453125 C-68.21314889 81.18751627 -71.54472871 76.84496595 -74.9375 72.5 C-73.9475 72.5 -72.9575 72.5 -71.9375 72.5 C-69.8515625 74.765625 -69.8515625 74.765625 -67.5625 77.75 C-64.62637819 81.56393142 -61.80970843 84.62662979 -57.9375 87.5 C-53.59724573 85.42141669 -49.47940539 82.94638714 -45.33398438 80.50976562 C-41.31200565 78.18078994 -37.24221149 76.2751906 -32.9375 74.5 C-30.63845192 73.46310429 -28.34355405 72.41787201 -26.05078125 71.3671875 C-23.9375 70.5 -23.9375 70.5 -19.9375 69.5 C-19.6075 66.53 -19.2775 63.56 -18.9375 60.5 C-18.6075 60.5 -18.2775 60.5 -17.9375 60.5 C-17.44263547 67.92296794 -17.44263547 67.92296794 -19.62695312 70.4699707 C-22.09865268 72.64158755 -24.28883218 73.80630803 -27.296875 75.12109375 C-28.33070313 75.58193359 -29.36453125 76.04277344 -30.4296875 76.51757812 C-31.50476563 76.98615234 -32.57984375 77.45472656 -33.6875 77.9375 C-44.20747586 82.50011627 -44.20747586 82.50011627 -53.9375 88.5 C-53.9375 89.49 -53.9375 90.48 -53.9375 91.5 C-45.31118969 92.51885555 -38.41278782 89.32028703 -30.6965332 85.90307617 C-28.49278788 84.93432962 -26.27301182 84.01247813 -24.04882812 83.09179688 C-22.63682834 82.47930429 -21.22597499 81.8641605 -19.81640625 81.24609375 C-19.15500137 80.97598984 -18.4935965 80.70588593 -17.81214905 80.42759705 C-14.26263053 78.80359287 -13.06289305 77.80570683 -11.56347656 74.15014648 C-11.00324853 70.88338778 -10.44734255 67.64116285 -10.04296875 64.3515625 C-9.89456543 63.19309814 -9.74616211 62.03463379 -9.59326172 60.84106445 C-9.43873535 59.61476318 -9.28420898 58.38846191 -9.125 57.125 C-7.20169827 42.49661509 -4.41596625 28.13899183 -1.34472656 13.71630859 C-1.16135742 12.83410645 -0.97798828 11.9519043 -0.7890625 11.04296875 C-0.62486816 10.26332764 -0.46067383 9.48368652 -0.29150391 8.68041992 C0.16933829 6.21011155 0.16933829 6.21011155 0.0625 2.5 C-5.77110238 3.05285774 -10.46772384 5.39834945 -15.6875 7.875 C-33.49289773 16.31486742 -33.49289773 16.31486742 -38.9375 14.5 C-38.39875244 14.32911865 -37.86000488 14.1582373 -37.30493164 13.98217773 C-31.53484827 12.11095031 -25.95434695 9.93813434 -20.375 7.5625 C-19.57642578 7.22798828 -18.77785156 6.89347656 -17.95507812 6.54882812 C-14.06316321 4.90261473 -10.27372512 3.17899175 -6.53125 1.21484375 C-2.9375 -0.5 -2.9375 -0.5 0 0 Z " fill="#767677" transform="translate(238.9375,125.5)"/>
<path d="M0 0 C1.3515625 1.328125 1.3515625 1.328125 2.9765625 3.953125 C2.9765625 4.613125 2.9765625 5.273125 2.9765625 5.953125 C21.7865625 5.953125 40.5965625 5.953125 59.9765625 5.953125 C59.9765625 5.293125 59.9765625 4.633125 59.9765625 3.953125 C60.9665625 3.953125 61.9565625 3.953125 62.9765625 3.953125 C63.3065625 2.963125 63.6365625 1.973125 63.9765625 0.953125 C71.21069393 -1.59221754 79.70179769 -2.54970543 87.0390625 0.140625 C90.49633718 2.27383703 90.85246787 3.14281361 91.9765625 6.953125 C92.2421875 10.29296875 92.2421875 10.29296875 92.2265625 13.890625 C92.23429687 15.66759766 92.23429687 15.66759766 92.2421875 17.48046875 C91.97516137 20.97144265 91.22368979 23.69647563 89.9765625 26.953125 C89.574375 28.0978125 89.574375 28.0978125 89.1640625 29.265625 C87.9765625 30.953125 87.9765625 30.953125 82.9765625 31.953125 C82.9765625 47.793125 82.9765625 63.633125 82.9765625 79.953125 C85.2865625 80.283125 87.5965625 80.613125 89.9765625 80.953125 C89.6465625 81.613125 89.3165625 82.273125 88.9765625 82.953125 C85.0165625 81.963125 85.0165625 81.963125 80.9765625 80.953125 C80.9765625 63.793125 80.9765625 46.633125 80.9765625 28.953125 C83.6165625 27.633125 86.2565625 26.313125 88.9765625 24.953125 C89.05737293 21.68179893 89.11696959 18.41246079 89.1640625 15.140625 C89.18919922 14.21185547 89.21433594 13.28308594 89.24023438 12.32617188 C89.24990234 11.43349609 89.25957031 10.54082031 89.26953125 9.62109375 C89.2852417 8.79891357 89.30095215 7.9767334 89.31713867 7.12963867 C89.12847641 4.90240769 89.12847641 4.90240769 87.76367188 3.1796875 C85.4083894 1.56316576 83.93175819 1.60848508 81.08984375 1.66015625 C79.6831543 1.6746582 79.6831543 1.6746582 78.24804688 1.68945312 C77.27158203 1.71458984 76.29511719 1.73972656 75.2890625 1.765625 C73.80696289 1.78592773 73.80696289 1.78592773 72.29492188 1.80664062 C69.85492019 1.84200297 67.41601531 1.89135467 64.9765625 1.953125 C64.3165625 3.933125 63.6565625 5.913125 62.9765625 7.953125 C55.22283081 8.09220397 47.4693917 8.19878426 39.71472549 8.26399803 C36.11373055 8.29529985 32.51358942 8.33774676 28.91308594 8.40576172 C25.43763611 8.47100276 21.96300683 8.5068397 18.48699188 8.52238846 C16.51695155 8.5388555 14.54724104 8.58568845 12.57769775 8.63290405 C9.26670176 8.63415349 6.22352174 8.60282129 2.9765625 7.953125 C0.41601562 4.953125 0.41601562 4.953125 -1.0234375 1.953125 C-3.21264258 1.14048298 -3.21264258 1.14048298 -5.5703125 1.3671875 C-6.83681641 1.39619141 -6.83681641 1.39619141 -8.12890625 1.42578125 C-9.00160156 1.47605469 -9.87429687 1.52632812 -10.7734375 1.578125 C-11.66160156 1.60519531 -12.54976563 1.63226563 -13.46484375 1.66015625 C-15.65352145 1.73075876 -17.83723318 1.82926973 -20.0234375 1.953125 C-20.6834375 3.933125 -21.3434375 5.913125 -22.0234375 7.953125 C-41.8234375 7.953125 -61.6234375 7.953125 -82.0234375 7.953125 C-82.0234375 7.623125 -82.0234375 7.293125 -82.0234375 6.953125 C-81.31599899 6.94281754 -80.60856049 6.93251007 -79.87968445 6.92189026 C-73.21412512 6.82392979 -66.54865318 6.72141737 -59.88324261 6.61378574 C-56.45645522 6.55861147 -53.02965922 6.50520034 -49.6027832 6.45581055 C-45.66348499 6.39895835 -41.7243301 6.33445188 -37.78515625 6.26953125 C-35.9381739 6.24446251 -35.9381739 6.24446251 -34.05387878 6.21888733 C-32.34244438 6.1889695 -32.34244438 6.1889695 -30.59643555 6.15844727 C-29.08752998 6.13513084 -29.08752998 6.13513084 -27.54814148 6.11134338 C-24.89739697 6.0534853 -24.89739697 6.0534853 -22.0234375 4.953125 C-21.6934375 3.303125 -21.3634375 1.653125 -21.0234375 -0.046875 C-14.73575561 -1.49971059 -5.91960127 -3.06265085 0 0 Z " fill="#767676" transform="translate(121.0234375,13.046875)"/>
<path d="M0 0 C10.23 0 20.46 0 31 0 C31 0.66 31 1.32 31 2 C29.09375 3.33203125 29.09375 3.33203125 26.5 4.8125 C25.5925 5.34230469 24.685 5.87210938 23.75 6.41796875 C22.0421014 7.40049565 20.33383656 8.38238658 18.625 9.36328125 C17.573125 9.98783203 17.573125 9.98783203 16.5 10.625 C15.8709375 10.98851562 15.241875 11.35203125 14.59375 11.7265625 C12.62285604 13.30134542 11.86971863 14.64189691 11 17 C11.30803455 20.18522204 11.30803455 20.18522204 12 23 C14.3260857 23.38063221 16.66055264 23.71269945 19 24 C20.96822886 22.03177114 20.66248381 18.65191291 21 16 C21.66 16 22.32 16 23 16 C23.6875 17.6875 23.6875 17.6875 24 20 C22.35923508 23.44560634 21.21487558 24.85674962 18 27 C14.6348717 26.85978632 12.69708863 26.60414348 10.125 24.375 C8.53235549 21.01275048 8.54813105 18.6795043 9 15 C11.69412726 10.98720155 14.64446925 8.68014367 18.75 6.1875 C19.73484375 5.58292969 20.7196875 4.97835937 21.734375 4.35546875 C22.48203125 3.90816406 23.2296875 3.46085937 24 3 C22.99440206 1.77215191 22.99440206 1.77215191 20.95874023 1.88647461 C19.64691772 1.89432983 19.64691772 1.89432983 18.30859375 1.90234375 C17.36435547 1.90556641 16.42011719 1.90878906 15.44726562 1.91210938 C14.45404297 1.92048828 13.46082031 1.92886719 12.4375 1.9375 C11.44041016 1.94201172 10.44332031 1.94652344 9.41601562 1.95117188 C6.94395151 1.96299993 4.47200482 1.97948151 2 2 C1.69835938 3.28003906 1.39671875 4.56007813 1.0859375 5.87890625 C-0.15357143 11.13887363 -0.15357143 11.13887363 -3 13 C-4.32860925 13.35169068 -5.66158328 13.68770276 -7 14 C-8.19822872 16.39645744 -8.15627315 17.95662027 -8.20532227 20.63330078 C-8.22526749 21.59414581 -8.24521271 22.55499084 -8.26576233 23.54495239 C-8.28247482 24.58457123 -8.29918732 25.62419006 -8.31640625 26.6953125 C-8.33718735 27.75789276 -8.35796844 28.82047302 -8.37937927 29.91525269 C-8.44490261 33.31843438 -8.50377273 36.72169489 -8.5625 40.125 C-8.60568257 42.42839366 -8.64929677 44.73177926 -8.69335938 47.03515625 C-8.80058682 52.69002021 -8.90234802 58.34496303 -9 64 C-7.88455811 63.9594751 -6.76911621 63.9189502 -5.61987305 63.87719727 C-2 64 -2 64 -0.08203125 65.96484375 C1.33370232 69.93605308 1.40224357 73.38044953 1.3125 77.5625 C1.31572266 78.31724609 1.31894531 79.07199219 1.32226562 79.84960938 C1.25432848 86.85948722 1.25432848 86.85948722 -1 90 C-3.65412761 91.83747296 -5.93361146 92.97787049 -9 94 C-9 108.85 -9 123.7 -9 139 C-7.02 139 -5.04 139 -3 139 C-2.67 139.66 -2.34 140.32 -2 141 C-4.33294775 141.04241723 -6.66702567 141.04092937 -9 141 C-10 140 -10 140 -10.12025452 138.01951599 C-10.11803391 137.15125687 -10.11581329 136.28299774 -10.11352539 135.38842773 C-10.11344986 134.40748642 -10.11337433 133.4265451 -10.11329651 132.4158783 C-10.10813522 131.3492244 -10.10297394 130.2825705 -10.09765625 129.18359375 C-10.0962413 128.0974025 -10.09482635 127.01121124 -10.09336853 125.8921051 C-10.08775048 122.40720925 -10.07519492 118.92237658 -10.0625 115.4375 C-10.05748733 113.08138113 -10.05292402 110.72526126 -10.04882812 108.36914062 C-10.03777519 102.57940536 -10.02101951 96.78970719 -10 91 C-4.25 89 -4.25 89 -2 89 C-1.9131671 85.541824 -1.85966718 82.08392656 -1.8125 78.625 C-1.78736328 77.64015625 -1.76222656 76.6553125 -1.73632812 75.640625 C-1.72666016 74.69960937 -1.71699219 73.75859375 -1.70703125 72.7890625 C-1.6913208 71.91975098 -1.67561035 71.05043945 -1.65942383 70.15478516 C-1.77181396 69.44370605 -1.8842041 68.73262695 -2 68 C-5.11785113 65.64644661 -5.11785113 65.64644661 -10 65 C-10 47.84 -10 30.68 -10 13 C-7.36 11.68 -4.72 10.36 -2 9 C-1.34 6.03 -0.68 3.06 0 0 Z " fill="#7A7A7A" transform="translate(38,29)"/>
<path d="M0 0 C0.33 0.66 0.66 1.32 1 2 C0.690625 2.66 0.38125 3.32 0.0625 4 C-1.77467431 9.18731571 -1.80438871 14.58683388 -0.0625 19.8125 C6.16998895 26.42271556 15.04337048 28.45614667 23.5234375 30.85717773 C24.32910156 31.09251221 25.13476562 31.32784668 25.96484375 31.5703125 C26.6930835 31.77414551 27.42132324 31.97797852 28.17163086 32.18798828 C30 33 30 33 32 36 C32.4375 38.9375 32.4375 38.9375 32 42 C27.38295632 46.49554253 24.11065484 47.33312881 17.875 47.296875 C12.92895913 46.78614252 8.56069179 44.88953786 4 43 C3.01 42.67 2.02 42.34 1 42 C0.01 44.97 -0.98 47.94 -2 51 C-0.41925436 51.81752303 1.16471223 52.62881997 2.75 53.4375 C4.07257813 54.11619141 4.07257813 54.11619141 5.421875 54.80859375 C13.03186441 58.32533128 23.0273114 58.14086621 31.1328125 56.28125 C37.12862597 54.06190412 40.07695956 51.36532078 43.25 45.8125 C44.67699857 40.46125537 45.07407889 35.01926831 42.4375 30.0625 C41.963125 29.381875 41.48875 28.70125 41 28 C41.495 26.515 41.495 26.515 42 25 C45.63545648 30.45318472 47.87460063 36.44092612 46.62890625 43.0234375 C44.66652617 49.19091774 41.17582761 53.83667292 35.4765625 56.953125 C24.21647694 61.7129088 15.21017125 61.32138121 4 57 C0.85972678 55.51732458 -2.10375525 53.91513203 -5 52 C-4.40099158 48.45008694 -3.44788874 45.45188857 -1.9375 42.1875 C-1.57527344 41.39730469 -1.21304688 40.60710937 -0.83984375 39.79296875 C-0.56269531 39.20128906 -0.28554687 38.60960937 0 38 C0.71542969 38.433125 1.43085937 38.86625 2.16796875 39.3125 C9.85074241 43.60610701 16.20341079 45.27061844 25 44 C28.14074735 42.78820151 28.14074735 42.78820151 30 40.125 C30.20834494 37.8846671 30.20834494 37.8846671 28.58203125 36.05078125 C24.34611653 32.68640118 19.32781111 31.78258485 14.17382812 30.37695312 C7.67132148 28.49343305 2.56605019 26.07926023 -1.875 20.75 C-4.14152877 15.20959633 -4.7046043 10.17813526 -2.625 4.5 C-1 1 -1 1 0 0 Z " fill="#808080" transform="translate(124,76)"/>
<path d="M0 0 C0.99 0.33 1.98 0.66 3 1 C1.61708812 4.10695059 0.01625732 6.24040062 -2.37890625 8.64453125 C-3.04873535 9.31863037 -3.71856445 9.99272949 -4.40869141 10.68725586 C-5.47482666 11.73925171 -5.47482666 11.73925171 -6.5625 12.8125 C-7.28614746 13.52865479 -8.00979492 14.24480957 -8.75537109 14.98266602 C-22.57612311 28.52613552 -22.57612311 28.52613552 -30 29 C-31.46384846 29.33063244 -32.9222817 29.68596356 -34.375 30.0625 C-36.169375 30.5265625 -36.169375 30.5265625 -38 31 C-39.00392976 37.525434 -39.00392976 37.525434 -38 44 C-38.99 43.505 -38.99 43.505 -40 43 C-40 42.34 -40 41.68 -40 41 C-40.99 40.67 -41.98 40.34 -43 40 C-42.34 40 -41.68 40 -41 40 C-41.0928125 38.6696875 -41.0928125 38.6696875 -41.1875 37.3125 C-40.97243411 33.51300258 -40.38513233 31.94166321 -38 29 C-34.82262198 26.95235639 -32.92890858 25.93941901 -29.125 26.1875 C-24.8835439 25.93301263 -22.92264368 23.9817482 -19.734375 21.3125 C-18 20 -18 20 -16 20 C-16 19.34 -16 18.68 -16 18 C-14.4609375 16.484375 -14.4609375 16.484375 -12.375 14.75 C-8.72639996 11.65323448 -5.34103014 8.42455589 -2 5 C-6.2123636 6.30814858 -10.00590706 7.94893369 -13.9375 9.9375 C-22.42212191 13.89121837 -31.08792237 15.54652477 -40.3671875 16.4453125 C-41.08865967 16.51911133 -41.81013184 16.59291016 -42.5534668 16.66894531 C-44.57893182 16.86451704 -46.60786302 17.02315857 -48.63671875 17.1796875 C-53.56628625 18.38202104 -55.07334355 21.50059288 -57.66333008 25.69140625 C-59.39472472 28.78628403 -61.11032973 31.88894507 -62.8125 35 C-63.42287109 36.08023438 -64.03324219 37.16046875 -64.66210938 38.2734375 C-65.23380859 39.31757813 -65.80550781 40.36171875 -66.39453125 41.4375 C-66.91893799 42.38496094 -67.44334473 43.33242187 -67.98364258 44.30859375 C-69.16675162 47.44157336 -69.10725458 48.86776042 -68 52 C-65.54182045 54.79245093 -65.54182045 54.79245093 -63 57 C-63.33 57.66 -63.66 58.32 -64 59 C-66.97 56.03 -69.94 53.06 -73 50 C-71.68605748 47.58518673 -70.36992262 45.17155548 -69.046875 42.76171875 C-67.44814984 39.84021946 -65.88611018 36.90043997 -64.328125 33.95703125 C-63.36480025 32.15873795 -62.40125713 30.36056161 -61.4375 28.5625 C-60.74950317 27.24813965 -60.74950317 27.24813965 -60.04760742 25.90722656 C-55.39078003 17.27538398 -55.39078003 17.27538398 -51 15 C-47.1076006 14.18040725 -43.20836145 13.79538583 -39.25 13.4375 C-28.03359621 12.36696885 -19.11798101 9.74662048 -9 4.875 C-8.23816406 4.51535156 -7.47632813 4.15570313 -6.69140625 3.78515625 C-3.10320952 2.26175105 -3.10320952 2.26175105 0 0 Z " fill="#808080" transform="translate(227,138)"/>
<path d="M0 0 C0.33 0 0.66 0 1 0 C1.49486453 7.42296794 1.49486453 7.42296794 -0.68945312 9.9699707 C-3.16115268 12.14158755 -5.35133218 13.30630803 -8.359375 14.62109375 C-9.39320313 15.08193359 -10.42703125 15.54277344 -11.4921875 16.01757812 C-12.56726563 16.48615234 -13.64234375 16.95472656 -14.75 17.4375 C-25.26997586 22.00011627 -25.26997586 22.00011627 -35 28 C-35 28.99 -35 29.98 -35 31 C-30.71 31 -26.42 31 -22 31 C-25 33 -25 33 -27 33 C-27 33.66 -27 34.32 -27 35 C-29.64 34.67 -32.28 34.34 -35 34 C-36.65 36.97 -38.3 39.94 -40 43 C-41.98 43 -43.96 43 -46 43 C-46 42.34 -46 41.68 -46 41 C-46.66 41 -47.32 41 -48 41 C-49.60178593 39.21895282 -51.13381926 37.37462722 -52.625 35.5 C-53.44226563 34.4790625 -54.25953125 33.458125 -55.1015625 32.40625 C-55.72804687 31.6121875 -56.35453125 30.818125 -57 30 C-56.67 29.34 -56.34 28.68 -56 28 C-55.34773437 28.7940625 -54.69546875 29.588125 -54.0234375 30.40625 C-53.14152771 31.43827209 -52.25866455 32.46948002 -51.375 33.5 C-50.94832031 34.02464844 -50.52164063 34.54929688 -50.08203125 35.08984375 C-47.62102472 37.91816469 -46.4551666 38.95309759 -42.6640625 39.34375 C-41.78492188 39.2303125 -40.90578125 39.116875 -40 39 C-38.95665529 36.17683197 -38.54094368 34.91605093 -39 32 C-40.92298694 29.28332742 -43.10075954 27.02091386 -45.4296875 24.64453125 C-49.27564889 20.68751627 -52.60722871 16.34496595 -56 12 C-55.01 12 -54.02 12 -53 12 C-50.9140625 14.265625 -50.9140625 14.265625 -48.625 17.25 C-45.68887819 21.06393142 -42.87220843 24.12662979 -39 27 C-34.65974573 24.92141669 -30.54190539 22.44638714 -26.39648438 20.00976562 C-22.37450565 17.68078994 -18.30471149 15.7751906 -14 14 C-11.70095192 12.96310429 -9.40605405 11.91787201 -7.11328125 10.8671875 C-5 10 -5 10 -1 9 C-0.67 6.03 -0.34 3.06 0 0 Z " fill="#808080" transform="translate(220,186)"/>
<path d="M0 0 C0.66 0.33 1.32 0.66 2 1 C0.06639028 2.81679387 -1.87176532 4.62834055 -3.8125 6.4375 C-4.34037109 6.93443359 -4.86824219 7.43136719 -5.41210938 7.94335938 C-10.7602919 12.91623085 -16.30537784 17.34076369 -22 22 C7.7 22.495 7.7 22.495 38 23 C36.68 21.35 35.36 19.7 34 18 C34.556875 18.28875 35.11375 18.5775 35.6875 18.875 C38.08494645 20.0413253 40.51596939 21.0339881 43 22 C42.67 23.32 42.34 24.64 42 26 C40.20841511 26.02696365 38.41671527 26.04637917 36.625 26.0625 C35.62726563 26.07410156 34.62953125 26.08570313 33.6015625 26.09765625 C31 26 31 26 29 25 C27.35643193 24.90414869 25.70885358 24.87016489 24.0625 24.875 C23.18722656 24.87242187 22.31195313 24.86984375 21.41015625 24.8671875 C18.85540944 24.90177997 18.85540944 24.90177997 16 26 C14.33333333 25.66666667 12.66666667 25.33333333 11 25 C10.01 25.33 9.02 25.66 8 26 C8 25.34 8 24.68 8 24 C7.40832031 24.16757813 6.81664062 24.33515625 6.20703125 24.5078125 C-1.64147627 26.53075571 -1.64147627 26.53075571 -6 24 C-6 24.66 -6 25.32 -6 26 C-7.918125 25.7525 -7.918125 25.7525 -9.875 25.5 C-14.9284158 24.92958264 -19.92062649 24.90456292 -25 25 C-25 21 -25 21 -23.0859375 19.0625 C-21.74402344 18.0415625 -21.74402344 18.0415625 -20.375 17 C-19.38628906 16.22785156 -18.39757812 15.45570313 -17.37890625 14.66015625 C-16.8389502 14.24008301 -16.29899414 13.82000977 -15.74267578 13.38720703 C-12.52476257 10.82567959 -9.42504901 8.12521198 -6.3125 5.4375 C-5.68843262 4.90060547 -5.06436523 4.36371094 -4.42138672 3.81054688 C-2.94655254 2.54157067 -1.47311828 1.27096774 0 0 Z " fill="#797979" transform="translate(122,203)"/>
<path d="M0 0 C6.875 0.875 6.875 0.875 8 2 C8.09333705 3.59610982 8.11745372 5.19633428 8.11352539 6.79516602 C8.11344986 7.81614883 8.11337433 8.83713165 8.11329651 9.88905334 C8.10813522 10.9994548 8.10297394 12.10985626 8.09765625 13.25390625 C8.0962413 14.38448959 8.09482635 15.51507294 8.09336853 16.67991638 C8.08775019 20.30747065 8.07519458 23.93496424 8.0625 27.5625 C8.05748736 30.01497307 8.05292405 32.4674471 8.04882812 34.91992188 C8.0377748 40.94663545 8.02101884 46.97331339 8 53 C2.25 56 2.25 56 0 56 C0.08081582 59.43846747 0.19366152 62.87515312 0.3125 66.3125 C0.33505859 67.28896484 0.35761719 68.26542969 0.38085938 69.27148438 C0.41630859 70.20927734 0.45175781 71.14707031 0.48828125 72.11328125 C0.51446533 72.97735596 0.54064941 73.84143066 0.56762695 74.73168945 C1.07665372 77.40213987 1.92329908 78.31011183 4 80 C2.125 79.75 2.125 79.75 0 79 C-2.71059891 75.31057371 -2.22529048 71.11649308 -2.125 66.75 C-2.11597656 66.00492187 -2.10695313 65.25984375 -2.09765625 64.4921875 C-2.07418358 62.66131941 -2.03831525 60.83061762 -2 59 C-2.66 58.67 -3.32 58.34 -4 58 C-3.01 58 -2.02 58 -1 58 C-0.67 56.68 -0.34 55.36 0 54 C2.97 53.505 2.97 53.505 6 53 C5.88259118 46.05813883 5.75775659 39.11644008 5.62768555 32.17480469 C5.58429484 29.81187999 5.54262287 27.44892309 5.50268555 25.0859375 C5.44508307 21.69521364 5.3813599 18.3046525 5.31640625 14.9140625 C5.29969376 13.85256989 5.28298126 12.79107727 5.26576233 11.69741821 C5.24581711 10.71655243 5.22587189 9.73568665 5.20532227 8.72509766 C5.18200584 7.42603989 5.18200584 7.42603989 5.15821838 6.10073853 C5.12903408 3.94242107 5.12903408 3.94242107 4 2 C1.97536745 1.34786708 1.97536745 1.34786708 0 1 C0 0.67 0 0.34 0 0 Z " fill="#7D7D7E" transform="translate(12,40)"/>
<path d="M0 0 C10.23 0 20.46 0 31 0 C31 0.66 31 1.32 31 2 C29.09375 3.33203125 29.09375 3.33203125 26.5 4.8125 C25.5925 5.34230469 24.685 5.87210938 23.75 6.41796875 C22.0421014 7.40049565 20.33383656 8.38238658 18.625 9.36328125 C17.573125 9.98783203 17.573125 9.98783203 16.5 10.625 C15.8709375 10.98851562 15.241875 11.35203125 14.59375 11.7265625 C12.62285604 13.30134542 11.86971863 14.64189691 11 17 C11.30803455 20.18522204 11.30803455 20.18522204 12 23 C14.3260857 23.38063221 16.66055264 23.71269945 19 24 C20.96822886 22.03177114 20.66248381 18.65191291 21 16 C21.66 16 22.32 16 23 16 C23.6875 17.6875 23.6875 17.6875 24 20 C22.35923508 23.44560634 21.21487558 24.85674962 18 27 C14.6348717 26.85978632 12.69708863 26.60414348 10.125 24.375 C8.53235549 21.01275048 8.54813105 18.6795043 9 15 C11.69412726 10.98720155 14.64446925 8.68014367 18.75 6.1875 C19.73484375 5.58292969 20.7196875 4.97835937 21.734375 4.35546875 C22.48203125 3.90816406 23.2296875 3.46085937 24 3 C22.99440206 1.77215191 22.99440206 1.77215191 20.95874023 1.88647461 C19.64691772 1.89432983 19.64691772 1.89432983 18.30859375 1.90234375 C17.36435547 1.90556641 16.42011719 1.90878906 15.44726562 1.91210938 C14.45404297 1.92048828 13.46082031 1.92886719 12.4375 1.9375 C11.44041016 1.94201172 10.44332031 1.94652344 9.41601562 1.95117188 C6.94395151 1.96299993 4.47200482 1.97948151 2 2 C1.69835938 3.28003906 1.39671875 4.56007813 1.0859375 5.87890625 C-0.15357143 11.13887363 -0.15357143 11.13887363 -3 13 C-4.32594105 13.36162029 -5.65938457 13.69728039 -7 14 C-7.66 14.66 -8.32 15.32 -9 16 C-9 14.68 -9 13.36 -9 12 C-7.88625 11.690625 -6.7725 11.38125 -5.625 11.0625 C-4.42875 10.381875 -3.2325 9.70125 -2 9 C-1.34 6.03 -0.68 3.06 0 0 Z " fill="#878687" transform="translate(38,29)"/>
<path d="M0 0 C0.33 0 0.66 0 1 0 C1 16.17 1 32.34 1 49 C-1.31 49.66 -3.62 50.32 -6 51 C-6.05790353 54.29159316 -6.09356261 57.58305603 -6.125 60.875 C-6.14175781 61.81214844 -6.15851563 62.74929687 -6.17578125 63.71484375 C-6.18222656 64.61074219 -6.18867188 65.50664063 -6.1953125 66.4296875 C-6.20578613 67.25710449 -6.21625977 68.08452148 -6.22705078 68.93701172 C-6.19302257 71.22398157 -6.19302257 71.22398157 -4 73 C-2.35008418 73.70710678 -0.68437744 74.37943989 1 75 C1.33 77.64 1.66 80.28 2 83 C3.98 83 5.96 83 8 83 C8.66 80.36 9.32 77.72 10 75 C10.33 75 10.66 75 11 75 C11 77.97 11 80.94 11 84 C6.78370866 86.10814567 4.60209225 86.17700355 0 86 C-0.495 83.03 -0.495 83.03 -1 80 C-1.99 80 -2.98 80 -4 80 C-3.67 78.68 -3.34 77.36 -3 76 C-3.639375 75.71125 -4.27875 75.4225 -4.9375 75.125 C-7 74 -7 74 -8 72 C-8.26476982 68.71444724 -8.2315145 65.42004114 -8.25 62.125 C-8.270625 61.21363281 -8.29125 60.30226562 -8.3125 59.36328125 C-8.31765625 58.48285156 -8.3228125 57.60242188 -8.328125 56.6953125 C-8.3374707 55.89109863 -8.34681641 55.08688477 -8.35644531 54.25830078 C-7.89900262 51.36011937 -7.12381313 50.02254139 -5 48 C-3.35 48 -1.7 48 0 48 C0 32.16 0 16.32 0 0 Z " fill="#787979" transform="translate(193,45)"/>
<path d="M0 0 C0 1.66666667 0 3.33333333 0 5 C-1.65 5.33 -3.3 5.66 -5 6 C-5 21.84 -5 37.68 -5 54 C-2.69 54.33 -0.38 54.66 2 55 C1.67 55.66 1.34 56.32 1 57 C-1.64 56.34 -4.28 55.68 -7 55 C-7 37.84 -7 20.68 -7 3 C-4.69 2.01 -2.38 1.02 0 0 Z " fill="#7B7B7C" transform="translate(209,39)"/>
<path d="M0 0 C0.556875 0.28875 1.11375 0.5775 1.6875 0.875 C4.08494645 2.0413253 6.51596939 3.0339881 9 4 C8.67 5.32 8.34 6.64 8 8 C6.20841511 8.02696365 4.41671527 8.04637917 2.625 8.0625 C1.62726563 8.07410156 0.62953125 8.08570313 -0.3984375 8.09765625 C-3 8 -3 8 -5 7 C-6.64356807 6.90414869 -8.29114642 6.87016489 -9.9375 6.875 C-10.81277344 6.87242187 -11.68804687 6.86984375 -12.58984375 6.8671875 C-15.14459056 6.90177997 -15.14459056 6.90177997 -18 8 C-19.66666667 7.66666667 -21.33333333 7.33333333 -23 7 C-23.99 7.33 -24.98 7.66 -26 8 C-26 7.34 -26 6.68 -26 6 C-28.97 6.66 -31.94 7.32 -35 8 C-34.67 7.01 -34.34 6.02 -34 5 C-21.46 5 -8.92 5 4 5 C2.68 3.35 1.36 1.7 0 0 Z " fill="#7B7B7B" transform="translate(156,221)"/>
<path d="M0 0 C5.51664071 -0.15891558 10.2872434 -0.02907827 15.41015625 2.10546875 C18.41015625 5.20224294 18.41015625 5.20224294 18.41015625 8.10546875 C17.75015625 8.10546875 17.09015625 8.10546875 16.41015625 8.10546875 C16.30703125 7.46609375 16.20390625 6.82671875 16.09765625 6.16796875 C15.87078125 5.48734375 15.64390625 4.80671875 15.41015625 4.10546875 C11.56037259 2.82220753 7.91942284 2.96038895 3.91015625 2.98046875 C3.13800781 2.97660156 2.36585937 2.97273437 1.5703125 2.96875 C-1.73488112 2.97447824 -4.43361873 3.05339374 -7.58984375 4.10546875 C-8.84232877 6.61043879 -8.70358781 8.31400149 -8.6875 11.11328125 C-8.68427734 12.09941406 -8.68105469 13.08554687 -8.67773438 14.1015625 C-8.66935547 15.13410156 -8.66097656 16.16664062 -8.65234375 17.23046875 C-8.64783203 18.27074219 -8.64332031 19.31101562 -8.63867188 20.3828125 C-8.62686327 22.95708837 -8.6103945 25.53125021 -8.58984375 28.10546875 C-9.24984375 27.77546875 -9.90984375 27.44546875 -10.58984375 27.10546875 C-10.84105081 24.27257954 -11.06620473 21.44139921 -11.27734375 18.60546875 C-11.35017578 17.81398438 -11.42300781 17.0225 -11.49804688 16.20703125 C-11.90341957 10.38874081 -11.13899537 6.38203434 -8.58984375 1.10546875 C-5.64288375 -0.07331525 -3.1347378 0.12765901 0 0 Z " fill="#787879" transform="translate(20.58984375,11.89453125)"/>
<path d="M0 0 C3.63545648 5.45318472 5.87460063 11.44092612 4.62890625 18.0234375 C2.66479835 24.19634805 -0.82628544 28.79789453 -6.49609375 31.9609375 C-14.61726571 35.33103382 -22.64509978 37.17486208 -31 34 C-31 33.67 -31 33.34 -31 33 C-29.88882813 32.97421875 -28.77765625 32.9484375 -27.6328125 32.921875 C-13.41825222 32.59240514 -13.41825222 32.59240514 -1.5 25.5625 C1.9298698 19.70313908 2.78143559 14.77616286 2 8 C0.5578092 5.14751227 0.5578092 5.14751227 -1 3 C-0.67 2.01 -0.34 1.02 0 0 Z " fill="#7C7C7C" transform="translate(166,101)"/>
<path d="M0 0 C2 3 2 3 2 5 C4.97 5.33 7.94 5.66 11 6 C11.97639431 8.92918293 12.12136181 10.79025738 12.11352539 13.83862305 C12.11344986 14.8194133 12.11337433 15.80020355 12.11329651 16.81071472 C12.10813522 17.86704605 12.10297394 18.92337738 12.09765625 20.01171875 C12.0962413 21.09508011 12.09482635 22.17844147 12.09336853 23.29463196 C12.08776559 26.75894925 12.07521258 30.2232022 12.0625 33.6875 C12.05748538 36.03450428 12.05292241 38.38150956 12.04882812 40.72851562 C12.03779521 46.48569908 12.0210542 52.24284494 12 58 C11.67 58 11.34 58 11 58 C10.67 42.16 10.34 26.32 10 10 C9.01 10 8.02 10 7 10 C6.34 9.67 5.68 9.34 5 9 C5.33 8.34 5.66 7.68 6 7 C4.35 6.67 2.7 6.34 1 6 C0.67 4.02 0.34 2.04 0 0 Z " fill="#8E8D8F" transform="translate(183,35)"/>
<path d="M0 0 C1.58206057 0.00667536 3.16410534 0.0186375 4.74609375 0.03515625 C5.55240234 0.03966797 6.35871094 0.04417969 7.18945312 0.04882812 C9.18753131 0.06065107 11.18557158 0.07858711 13.18359375 0.09765625 C9.94540098 1.97462564 7.20918856 2.48530027 3.5 2.84375 C1.8612793 3.01680664 1.8612793 3.01680664 0.18945312 3.19335938 C-2.10187034 3.42080215 -4.39354106 3.64477394 -6.68554688 3.86523438 C-7.77931641 3.98189453 -8.87308594 4.09855469 -10 4.21875 C-10.99572021 4.31599365 -11.99144043 4.4132373 -13.01733398 4.51342773 C-16.17984941 5.17351491 -18.20626592 6.20890295 -20.81640625 8.09765625 C-22.69263948 11.00779825 -22.69263948 11.00779825 -24.12890625 14.28515625 C-24.64066406 15.37183594 -25.15242187 16.45851562 -25.6796875 17.578125 C-26.05480469 18.40957031 -26.42992187 19.24101562 -26.81640625 20.09765625 C-27.81640625 17.09765625 -27.81640625 17.09765625 -26.77734375 14.50390625 C-26.25398437 13.54484375 -25.730625 12.58578125 -25.19140625 11.59765625 C-24.68351563 10.63859375 -24.175625 9.67953125 -23.65234375 8.69140625 C-20.9142302 4.82309264 -18.32715307 3.43891632 -13.73828125 2.40234375 C-12.16820312 2.18964844 -12.16820312 2.18964844 -10.56640625 1.97265625 C-6.62639011 1.42489791 -3.8208616 0.09777026 0 0 Z " fill="#7B7B7C" transform="translate(185.81640625,140.90234375)"/>
<path d="M0 0 C3.63 0 7.26 0 11 0 C11.09765625 7.71484375 11.09765625 7.71484375 11 10 C10.67 10.33 10.34 10.66 10 11 C8.33050645 10.96232046 6.66240712 10.84571204 5 10.6875 C3.63875 10.56955078 3.63875 10.56955078 2.25 10.44921875 C1.5075 10.30097656 0.765 10.15273438 0 10 C-1.36952673 7.26094655 -1.12621361 5.02912668 -1 2 C-0.67 1.34 -0.34 0.68 0 0 Z M2 1 C0.58422523 2.18424326 0.58422523 2.18424326 0.9375 5.5625 C0.958125 6.696875 0.97875 7.83125 1 9 C3.97 9 6.94 9 10 9 C10 6.69 10 4.38 10 2 C9.67 2 9.34 2 9 2 C9 3.98 9 5.96 9 8 C8.67 7.01 8.34 6.02 8 5 C7.34 4.67 6.68 4.34 6 4 C6.33 3.34 6.66 2.68 7 2 C5.34385343 1.61781233 3.67542976 1.28604898 2 1 Z " fill="#7E7E7E" transform="translate(192,23)"/>
<path d="M0 0 C0 1.66666667 0 3.33333333 0 5 C-1.98 5.33 -3.96 5.66 -6 6 C-6 19.2 -6 32.4 -6 46 C-6.33 46 -6.66 46 -7 46 C-7 31.81 -7 17.62 -7 3 C-4.69 2.01 -2.38 1.02 0 0 Z " fill="#888889" transform="translate(209,39)"/>
<path d="M0 0 C0.98137922 2.30539516 1.50236833 4.57223819 2.09375 7.00390625 C2.3928125 7.66261719 2.691875 8.32132813 3 9 C5.02389925 9.84549103 5.02389925 9.84549103 7 10 C6.67 10.66 6.34 11.32 6 12 C3.625 11.4375 3.625 11.4375 1 10 C-0.1534115 6.92423601 -1 4.2987434 -1 1 C-7.56532588 -0.38217387 -16.00229355 -1.63497361 -22 2 C-23.80348078 4.01317219 -23.80348078 4.01317219 -25 6 C-24.8125 3.6875 -24.8125 3.6875 -24 1 C-17.63791726 -3.94828658 -6.81561625 -4.74259511 0 0 Z " fill="#7B7B7A" transform="translate(123,169)"/>
<path d="M0 0 C2.01822917 0.06510417 4.03645833 0.13020833 6.0546875 0.1953125 C2.96659055 1.95993933 1.82156614 2.1953125 -1.9453125 2.1953125 C-1.9453125 4.5053125 -1.9453125 6.8153125 -1.9453125 9.1953125 C3.2240364 8.78975119 3.2240364 8.78975119 8.0546875 7.1953125 C8.0546875 5.5453125 8.0546875 3.8953125 8.0546875 2.1953125 C8.3846875 2.1953125 8.7146875 2.1953125 9.0546875 2.1953125 C9.15234375 8.34765625 9.15234375 8.34765625 9.0546875 10.1953125 C8.0546875 11.1953125 8.0546875 11.1953125 5.5859375 11.328125 C4.08546875 11.32425781 4.08546875 11.32425781 2.5546875 11.3203125 C1.554375 11.32289063 0.5540625 11.32546875 -0.4765625 11.328125 C-2.9453125 11.1953125 -2.9453125 11.1953125 -3.9453125 10.1953125 C-4.21846065 4.45920139 -4.21846065 4.45920139 -3.9453125 2.1953125 C-1.9453125 0.1953125 -1.9453125 0.1953125 0 0 Z " fill="#7E7E7E" transform="translate(22.9453125,177.8046875)"/>
<path d="M0 0 C4.84455959 1.40932642 4.84455959 1.40932642 7 3 C7.969218 5.79200866 7.95072091 7.99397579 8 11 C9.98 11 11.96 11 14 11 C14.66 8.36 15.32 5.72 16 3 C16.33 3 16.66 3 17 3 C17 5.97 17 8.94 17 12 C12.78370866 14.10814567 10.60209225 14.17700355 6 14 C5.67 12.02 5.34 10.04 5 8 C4.01 8 3.02 8 2 8 C2.33 6.68 2.66 5.36 3 4 C1.68 3.01 0.36 2.02 -1 1 C-0.67 0.67 -0.34 0.34 0 0 Z " fill="#888888" transform="translate(187,117)"/>
<path d="M0 0 C2.31332486 3.46998729 2.33957563 4.92509248 2 9 C1.01 10.485 1.01 10.485 0 12 C-3.71640139 12.27028374 -6.457201 12.180933 -10 11 C-9.67 9.68 -9.34 8.36 -9 7 C-9 7.99 -9 8.98 -9 10 C-6.36 9.67 -3.72 9.34 -1 9 C-0.67 6.69 -0.34 4.38 0 2 C-1.258125 2.144375 -2.51625 2.28875 -3.8125 2.4375 C-4.52019531 2.51871094 -5.22789063 2.59992188 -5.95703125 2.68359375 C-8.19396393 2.97170735 -8.19396393 2.97170735 -11 4 C-10.67 3.01 -10.34 2.02 -10 1 C-6.457201 -0.180933 -3.71640139 -0.27028374 0 0 Z " fill="#848485" transform="translate(116,177)"/>
<path d="M0 0 C9.27527939 -0.53511227 18.63631906 1.06814591 26 7 C25.01 7.495 25.01 7.495 24 8 C22.9275 7.401875 21.855 6.80375 20.75 6.1875 C14.9120763 3.06312972 8.49381479 2.69316001 2 2 C1.87625 2.928125 1.7525 3.85625 1.625 4.8125 C1 8 1 8 -1 11 C-1.66 10.67 -2.32 10.34 -3 10 C-2.34 9.01 -1.68 8.02 -1 7 C-0.60612212 4.67612053 -0.26513915 2.34206251 0 0 Z " fill="#848383" transform="translate(124,29)"/>
<path d="M0 0 C3.15596878 2.32056528 5.56637945 4.6656664 7.9375 7.75 C10.25349091 10.57129802 10.55958761 10.9429095 14.375 11.4375 C15.24125 11.293125 16.1075 11.14875 17 11 C17.66 9.02 18.32 7.04 19 5 C19.33 5 19.66 5 20 5 C19.25 11.625 19.25 11.625 17 15 C13.875 15.1875 13.875 15.1875 11 15 C11 14.34 11 13.68 11 13 C10.34 13 9.68 13 9 13 C7.39365985 11.26608049 5.8624713 9.461909 4.375 7.625 C3.55773437 6.62726563 2.74046875 5.62953125 1.8984375 4.6015625 C0 2 0 2 0 0 Z " fill="#737373" transform="translate(163,214)"/>
<path d="M0 0 C0.8146875 0.00257812 1.629375 0.00515625 2.46875 0.0078125 C3.2834375 0.00523438 4.098125 0.00265625 4.9375 0 C6.96875 0.1328125 6.96875 0.1328125 7.96875 1.1328125 C8.1015625 2.9453125 8.1015625 2.9453125 8.09375 5.1328125 C8.09632812 5.8546875 8.09890625 6.5765625 8.1015625 7.3203125 C7.96875 9.1328125 7.96875 9.1328125 6.96875 10.1328125 C5.47136876 10.2307182 3.96932108 10.26256114 2.46875 10.2578125 C1.6540625 10.26039062 0.839375 10.26296875 0 10.265625 C-2.03125 10.1328125 -2.03125 10.1328125 -3.03125 9.1328125 C-3.1640625 7.3203125 -3.1640625 7.3203125 -3.15625 5.1328125 C-3.15882812 4.4109375 -3.16140625 3.6890625 -3.1640625 2.9453125 C-2.97297164 0.33748427 -2.60354898 0.17023205 0 0 Z M-2.03125 2.1328125 C-2.07188832 3.79898365 -2.073971 5.46669345 -2.03125 7.1328125 C-0.3170211 8.36677291 -0.3170211 8.36677291 1.96875 9.1328125 C4.6880793 8.34578899 4.6880793 8.34578899 6.96875 7.1328125 C6.96875 5.4828125 6.96875 3.8328125 6.96875 2.1328125 C4.40702949 0.85195224 0.18929965 -0.08773715 -2.03125 2.1328125 Z " fill="#767678" transform="translate(22.03125,101.8671875)"/>
<path d="M0 0 C0 0.99 0 1.98 0 3 C-1.093125 3.309375 -2.18625 3.61875 -3.3125 3.9375 C-5.55407994 4.58337897 -7.7869351 5.2623117 -10 6 C-14.10135136 5.43036787 -18.03385237 4.16651401 -22 3 C-22 2.67 -22 2.34 -22 2 C-21.36908447 1.97494385 -20.73816895 1.9498877 -20.08813477 1.92407227 C-17.24603175 1.80845863 -14.40428917 1.68557684 -11.5625 1.5625 C-10.56927734 1.52318359 -9.57605469 1.48386719 -8.55273438 1.44335938 C-7.60849609 1.40146484 -6.66425781 1.35957031 -5.69140625 1.31640625 C-4.81685791 1.27974854 -3.94230957 1.24309082 -3.04125977 1.20532227 C-1.0072598 1.21818934 -1.0072598 1.21818934 0 0 Z " fill="#7C7C7C" transform="translate(37,195)"/>
<path d="M0 0 C1.26199941 3.63639952 0.75413065 6.34530115 0.00390625 10.078125 C-0.33930664 11.81835938 -0.33930664 11.81835938 -0.68945312 13.59375 C-0.93630859 14.8003125 -1.18316406 16.006875 -1.4375 17.25 C-1.68048828 18.47203125 -1.92347656 19.6940625 -2.17382812 20.953125 C-2.7749192 23.97036646 -3.3839178 26.98579011 -4 30 C-4.33 30 -4.66 30 -5 30 C-5.39467674 20.3304198 -4.46124719 10.07555366 -1 1 C-0.67 0.67 -0.34 0.34 0 0 Z " fill="#7F7F7F" transform="translate(226,154)"/>
<path d="M0 0 C3.875 1.75 3.875 1.75 5 4 C5.375 6.875 5.375 6.875 5 10 C2.31515827 12.75942067 -0.12012767 14.65765832 -4 15 C-6.34114367 14.72686657 -8.67750658 14.40197001 -11 14 C-11 13.67 -11 13.34 -11 13 C-10.15695313 12.91363281 -9.31390625 12.82726562 -8.4453125 12.73828125 C-7.34960938 12.59777344 -6.25390625 12.45726563 -5.125 12.3125 C-4.03445312 12.18488281 -2.94390625 12.05726562 -1.8203125 11.92578125 C1.2302512 11.28387243 1.2302512 11.28387243 2.3828125 8.41796875 C2.58648437 7.62003906 2.79015625 6.82210937 3 6 C1.68 4.35 0.36 2.7 -1 1 C-0.67 0.67 -0.34 0.34 0 0 Z " fill="#898989" transform="translate(151,108)"/>
<path d="M0 0 C0.8353125 0.433125 0.8353125 0.433125 1.6875 0.875 C4.08494645 2.0413253 6.51596939 3.0339881 9 4 C8.67 5.32 8.34 6.64 8 8 C4.37 8 0.74 8 -3 8 C-3 7.34 -3 6.68 -3 6 C0.465 5.505 0.465 5.505 4 5 C2.68 3.35 1.36 1.7 0 0 Z " fill="#858586" transform="translate(156,221)"/>
<path d="M0 0 C0.99 0.66 1.98 1.32 3 2 C1.7625 2.8353125 1.7625 2.8353125 0.5 3.6875 C-2.2745414 5.74927133 -2.2745414 5.74927133 -2.3125 8.75 C-2.209375 9.4925 -2.10625 10.235 -2 11 C-3.5625 9.8125 -3.5625 9.8125 -5 8 C-4.9375 5.5 -4.9375 5.5 -4 3 C-1.9375 1.1875 -1.9375 1.1875 0 0 Z " fill="#8E8E8E" transform="translate(140,81)"/>
<path d="M0 0 C2 3 2 3 2 5 C4.97 5.33 7.94 5.66 11 6 C11 6.66 11 7.32 11 8 C9.02 8.66 7.04 9.32 5 10 C5.33 9.01 5.66 8.02 6 7 C4.35 6.67 2.7 6.34 1 6 C0.67 4.02 0.34 2.04 0 0 Z " fill="#878787" transform="translate(183,35)"/>
<path d="M0 0 C0.33 0 0.66 0 1 0 C1 2.97 1 5.94 1 9 C-3.35532149 11.17766075 -4.46625958 11.03039555 -9 10 C-8.67 9.34 -8.34 8.68 -8 8 C-6.02 8 -4.04 8 -2 8 C-1.34 5.36 -0.68 2.72 0 0 Z " fill="#7D7D7D" transform="translate(203,120)"/>
<path d="M0 0 C0.66 0.33 1.32 0.66 2 1 C2.103125 1.7425 2.20625 2.485 2.3125 3.25 C3.2325913 6.9303652 5.2248604 8.5094901 8 11 C7.67 11.66 7.34 12.32 7 13 C4.03 10.03 1.06 7.06 -2 4 C-1.34 2.68 -0.68 1.36 0 0 Z " fill="#858586" transform="translate(156,184)"/>
<path d="M0 0 C0.33 0 0.66 0 1 0 C0.25 6.625 0.25 6.625 -2 10 C-5.125 10.1875 -5.125 10.1875 -8 10 C-7.67 9.01 -7.34 8.02 -7 7 C-5.35 6.67 -3.7 6.34 -2 6 C-1.34 4.02 -0.68 2.04 0 0 Z " fill="#7C7C7D" transform="translate(182,219)"/>
<path d="M0 0 C3.63 0 7.26 0 11 0 C10.67 0.99 10.34 1.98 10 3 C9.34 3 8.68 3 8 3 C8 2.34 8 1.68 8 1 C5.03 1.66 2.06 2.32 -1 3 C-0.67 2.01 -0.34 1.02 0 0 Z " fill="#818282" transform="translate(122,226)"/>
<path d="M0 0 C1.65 0.33 3.3 0.66 5 1 C5 1.66 5 2.32 5 3 C4.2575 3.103125 3.515 3.20625 2.75 3.3125 C-0.17014018 4.04253504 -1.73187554 5.06789398 -4 7 C-4.66 6.67 -5.32 6.34 -6 6 C-4.71034824 4.62437146 -3.37310707 3.29233607 -2 2 C-1.34 2 -0.68 2 0 2 C0 1.34 0 0.68 0 0 Z " fill="#838484" transform="translate(130,196)"/>
<path d="M0 0 C0.99 0.33 1.98 0.66 3 1 C2.67 1.99 2.34 2.98 2 4 C-1.05847848 4.54372951 -3.88772805 5 -7 5 C-4.702779 3.25728062 -2.40133271 1.60088848 0 0 Z " fill="#848484" transform="translate(227,138)"/>
<path d="M0 0 C1.485 0.99 1.485 0.99 3 2 C3.1875 4.625 3.1875 4.625 3 7 C2.34 6.34 1.68 5.68 1 5 C0.34 5.66 -0.32 6.32 -1 7 C-1.04254356 5.00045254 -1.04080783 2.99958364 -1 1 C-0.67 0.67 -0.34 0.34 0 0 Z " fill="#929294" transform="translate(106,180)"/>
<path d="M0 0 C1.65 0 3.3 0 5 0 C4.67 2.31 4.34 4.62 4 7 C3.34 6.67 2.68 6.34 2 6 C2.33 5.34 2.66 4.68 3 4 C2.01 3.67 1.02 3.34 0 3 C0 2.01 0 1.02 0 0 Z " fill="#989899" transform="translate(197,24)"/>
<path d="M0 0 C-0.33 0.66 -0.66 1.32 -1 2 C-3.64 2 -6.28 2 -9 2 C-6.98558063 -2.02883874 -3.72407517 -0.90585612 0 0 Z " fill="#888888" transform="translate(30,110)"/>
<path d="M0 0 C1.65 0.33 3.3 0.66 5 1 C1.25 3 1.25 3 -1 3 C-1.33 3.99 -1.66 4.98 -2 6 C-2.33 5.34 -2.66 4.68 -3 4 C-2.01 2.68 -1.02 1.36 0 0 Z " fill="#858484" transform="translate(188,93)"/>
<path d="M0 0 C2.31 0.33 4.62 0.66 7 1 C7.33 2.32 7.66 3.64 8 5 C6.68 4.67 5.36 4.34 4 4 C4 3.34 4 2.68 4 2 C2.68 1.67 1.36 1.34 0 1 C0 0.67 0 0.34 0 0 Z " fill="#868687" transform="translate(12,40)"/>
<path d="M0 0 C0.66 0.33 1.32 0.66 2 1 C1.67 1.99 1.34 2.98 1 4 C0.34 4 -0.32 4 -1 4 C-0.67 2.68 -0.34 1.36 0 0 Z " fill="#989999" transform="translate(42,173)"/>
<path d="M0 0 C0.99 0.33 1.98 0.66 3 1 C2.67 1.66 2.34 2.32 2 3 C1.01 2.34 0.02 1.68 -1 1 C-0.67 0.67 -0.34 0.34 0 0 Z " fill="#989899" transform="translate(190,185)"/>
<path d="M0 0 C1.65 0 3.3 0 5 0 C5 0.33 5 0.66 5 1 C3.35 1 1.7 1 0 1 C0 0.67 0 0.34 0 0 Z " fill="#9A9A99" transform="translate(176,156)"/>
<path d="M0 0 C1.32 0.33 2.64 0.66 4 1 C3.01 1.495 3.01 1.495 2 2 C1.34 1.34 0.68 0.68 0 0 Z " fill="#9B9B9B" transform="translate(184,155)"/>
<path d="M0 0 C1 4 1 4 1 4 Z " fill="#8E8F90" transform="translate(16,153)"/>
<path d="M0 0 C1 4 1 4 1 4 Z " fill="#8F8F90" transform="translate(16,144)"/>
<path d="M0 0 C1.485 0.99 1.485 0.99 3 2 C2.01 2 1.02 2 0 2 C0 1.34 0 0.68 0 0 Z " fill="#99989A" transform="translate(194,131)"/>
<path d="M0 0 C1 4 1 4 1 4 Z " fill="#99999A" transform="translate(66,124)"/>
<path d="M0 0 C1 4 1 4 1 4 Z " fill="#989899" transform="translate(183,111)"/>
<path d="M0 0 C0.99 0.495 0.99 0.495 2 1 C1.67 1.66 1.34 2.32 1 3 C0.67 2.01 0.34 1.02 0 0 Z " fill="#9C9D9C" transform="translate(200,106)"/>
<path d="M0 0 C4 1 4 1 4 1 Z " fill="#9B9C9D" transform="translate(136,107)"/>
<path d="M0 0 C1 4 1 4 1 4 Z " fill="#9A9B9B" transform="translate(97,102)"/>
<path d="M0 0 C1 4 1 4 1 4 Z " fill="#989898" transform="translate(191,64)"/>
<path d="M0 0 C1 4 1 4 1 4 Z " fill="#979799" transform="translate(191,56)"/>
<path d="M0 0 C0.99 1.485 0.99 1.485 2 3 C1.34 3 0.68 3 0 3 C0 2.01 0 1.02 0 0 Z " fill="#9B9B9C" transform="translate(194,28)"/>
<path d="M0 0 C4 1 4 1 4 1 Z " fill="#929294" transform="translate(78,18)"/>
<path d="M0 0 C0.99 0.495 0.99 0.495 2 1 C1.01 1.495 1.01 1.495 0 2 C0 1.34 0 0.68 0 0 Z " fill="#979798" transform="translate(194,187)"/>
<path d="" fill="#8E8E8E" transform="translate(0,0)"/>
<path d="" fill="#8F9091" transform="translate(0,0)"/>
<path d="" fill="#909091" transform="translate(0,0)"/>
<path d="M0 0 C0.99 0.495 0.99 0.495 2 1 C1.01 1.495 1.01 1.495 0 2 C0 1.34 0 0.68 0 0 Z " fill="#999A9A" transform="translate(122,131)"/>
<path d="M0 0 C0.99 0.495 0.99 0.495 2 1 C1.01 1.495 1.01 1.495 0 2 C0 1.34 0 0.68 0 0 Z " fill="#9A999A" transform="translate(120,130)"/>
<path d="" fill="#979799" transform="translate(0,0)"/>
<path d="" fill="#98989A" transform="translate(0,0)"/>
<path d="" fill="#9B9C9C" transform="translate(0,0)"/>
<path d="" fill="#98999A" transform="translate(0,0)"/>
<path d="" fill="#99989A" transform="translate(0,0)"/>
<path d="" fill="#979798" transform="translate(0,0)"/>
<path d="M0 0 C0.66 0 1.32 0 2 0 C1.67 0.66 1.34 1.32 1 2 C0.67 1.34 0.34 0.68 0 0 Z " fill="#939495" transform="translate(13,43)"/>
<path d="M0 0 C3 1 3 1 3 1 Z " fill="#9C9D9D" transform="translate(170,31)"/>
<path d="M0 0 C3 1 3 1 3 1 Z " fill="#98989A" transform="translate(112,25)"/>
<path d="M0 0 C2 1 2 1 2 1 Z " fill="#9A999A" transform="translate(138,196)"/>
<path d="M0 0 C2 1 2 1 2 1 Z " fill="#979898" transform="translate(94,192)"/>
<path d="M0 0 C2 1 2 1 2 1 Z " fill="#999B9B" transform="translate(113,185)"/>
<path d="M0 0 C2 1 2 1 2 1 Z " fill="#979799" transform="translate(108,180)"/>
<path d="" fill="#9C9D9E" transform="translate(0,0)"/>
<path d="" fill="#8F8F90" transform="translate(0,0)"/>
<path d="M0 0 C2 1 2 1 2 1 Z " fill="#999A9A" transform="translate(114,165)"/>
<path d="" fill="#8E8E8F" transform="translate(0,0)"/>
<path d="M0 0 C2 1 2 1 2 1 Z " fill="#9D9D9E" transform="translate(191,154)"/>
<path d="" fill="#909091" transform="translate(0,0)"/>
<path d="" fill="#909092" transform="translate(0,0)"/>
<path d="" fill="#929292" transform="translate(0,0)"/>
<path d="M0 0 C2 1 2 1 2 1 Z " fill="#989999" transform="translate(189,130)"/>
<path d="M0 0 C2 1 2 1 2 1 Z " fill="#8C8C8C" transform="translate(241,126)"/>
<path d="M0 0 C2 1 2 1 2 1 Z " fill="#9A9999" transform="translate(207,121)"/>
<path d="M0 0 C2 1 2 1 2 1 Z " fill="#9C9C9D" transform="translate(77,120)"/>
<path d="M0 0 C2 1 2 1 2 1 Z " fill="#9A9A9B" transform="translate(181,98)"/>
<path d="M0 0 C2 1 2 1 2 1 Z " fill="#9C9C9E" transform="translate(155,94)"/>
<path d="M0 0 C2 1 2 1 2 1 Z " fill="#9D9F9E" transform="translate(152,84)"/>
<path d="" fill="#939293" transform="translate(0,0)"/>
<path d="M0 0 C2 1 2 1 2 1 Z " fill="#9B9B9C" transform="translate(162,69)"/>
<path d="" fill="#98989A" transform="translate(0,0)"/>
<path d="M0 0 C2 1 2 1 2 1 Z " fill="#98999A" transform="translate(106,43)"/>
<path d="M0 0 C2 1 2 1 2 1 Z " fill="#989999" transform="translate(116,42)"/>
<path d="" fill="#98999A" transform="translate(0,0)"/>
<path d="M0 0 C2 1 2 1 2 1 Z " fill="#919292" transform="translate(47,18)"/>
<path d="" fill="#89898B" transform="translate(0,0)"/>
<path d="" fill="#939596" transform="translate(0,0)"/>
<path d="" fill="#8F8F8F" transform="translate(0,0)"/>
<path d="" fill="#848586" transform="translate(0,0)"/>
<path d="" fill="#8F8D91" transform="translate(0,0)"/>
<path d="" fill="#919293" transform="translate(0,0)"/>
<path d="" fill="#8E8E91" transform="translate(0,0)"/>
<path d="" fill="#8E8E90" transform="translate(0,0)"/>
<path d="" fill="#8E8D8F" transform="translate(0,0)"/>
<path d="" fill="#8E8A8D" transform="translate(0,0)"/>
<path d="" fill="#949697" transform="translate(0,0)"/>
<path d="" fill="#969798" transform="translate(0,0)"/>
<path d="" fill="#8A8A89" transform="translate(0,0)"/>
<path d="" fill="#919291" transform="translate(0,0)"/>
<path d="" fill="#979796" transform="translate(0,0)"/>
<path d="" fill="#8B8C8F" transform="translate(0,0)"/>
<path d="" fill="#98989A" transform="translate(0,0)"/>
<path d="" fill="#989A99" transform="translate(0,0)"/>
<path d="" fill="#989A99" transform="translate(0,0)"/>
<path d="" fill="#989898" transform="translate(0,0)"/>
<path d="" fill="#8A898A" transform="translate(0,0)"/>
<path d="" fill="#989898" transform="translate(0,0)"/>
<path d="" fill="#979699" transform="translate(0,0)"/>
<path d="" fill="#999898" transform="translate(0,0)"/>
<path d="" fill="#99989B" transform="translate(0,0)"/>
<path d="" fill="#969796" transform="translate(0,0)"/>
<path d="" fill="#98989A" transform="translate(0,0)"/>
<path d="" fill="#989B99" transform="translate(0,0)"/>
<path d="" fill="#999A9C" transform="translate(0,0)"/>
<path d="" fill="#999998" transform="translate(0,0)"/>
<path d="" fill="#969898" transform="translate(0,0)"/>
<path d="" fill="#989898" transform="translate(0,0)"/>
<path d="" fill="#979698" transform="translate(0,0)"/>
<path d="" fill="#9A9C9D" transform="translate(0,0)"/>
<path d="" fill="#989A9A" transform="translate(0,0)"/>
<path d="" fill="#989999" transform="translate(0,0)"/>
<path d="" fill="#959798" transform="translate(0,0)"/>
<path d="" fill="#99989B" transform="translate(0,0)"/>
<path d="" fill="#858785" transform="translate(0,0)"/>
<path d="" fill="#989695" transform="translate(0,0)"/>
<path d="" fill="#9A9C9D" transform="translate(0,0)"/>
<path d="" fill="#888789" transform="translate(0,0)"/>
<path d="" fill="#909091" transform="translate(0,0)"/>
<path d="" fill="#868887" transform="translate(0,0)"/>
<path d="" fill="#999999" transform="translate(0,0)"/>
<path d="" fill="#9A9B9A" transform="translate(0,0)"/>
<path d="" fill="#999A9C" transform="translate(0,0)"/>
<path d="" fill="#96999B" transform="translate(0,0)"/>
<path d="" fill="#9A9B9B" transform="translate(0,0)"/>
<path d="" fill="#9A9A9B" transform="translate(0,0)"/>
<path d="" fill="#99999A" transform="translate(0,0)"/>
<path d="" fill="#98989B" transform="translate(0,0)"/>
<path d="" fill="#919292" transform="translate(0,0)"/>
<path d="" fill="#97989A" transform="translate(0,0)"/>
<path d="" fill="#959797" transform="translate(0,0)"/>
<path d="" fill="#99999D" transform="translate(0,0)"/>
<path d="" fill="#9B9A9B" transform="translate(0,0)"/>
<path d="" fill="#99989A" transform="translate(0,0)"/>
<path d="" fill="#989A99" transform="translate(0,0)"/>
<path d="" fill="#909091" transform="translate(0,0)"/>
<path d="" fill="#9A999B" transform="translate(0,0)"/>
<path d="" fill="#989898" transform="translate(0,0)"/>
<path d="" fill="#999C9C" transform="translate(0,0)"/>
<path d="" fill="#979899" transform="translate(0,0)"/>
<path d="" fill="#9A9B9B" transform="translate(0,0)"/>
<path d="" fill="#8C8C8E" transform="translate(0,0)"/>
<path d="" fill="#9B9B9B" transform="translate(0,0)"/>
<path d="" fill="#9C9A9A" transform="translate(0,0)"/>
<path d="" fill="#9C9C9B" transform="translate(0,0)"/>
<path d="" fill="#9A9A9A" transform="translate(0,0)"/>
<path d="" fill="#999A9B" transform="translate(0,0)"/>
<path d="" fill="#99999A" transform="translate(0,0)"/>
<path d="" fill="#909092" transform="translate(0,0)"/>
<path d="" fill="#9C9B99" transform="translate(0,0)"/>
<path d="" fill="#9A9B9A" transform="translate(0,0)"/>
<path d="" fill="#9A9B9B" transform="translate(0,0)"/>
<path d="" fill="#9B999B" transform="translate(0,0)"/>
<path d="" fill="#929294" transform="translate(0,0)"/>
<path d="" fill="#9A999B" transform="translate(0,0)"/>
<path d="" fill="#9A9A99" transform="translate(0,0)"/>
<path d="" fill="#999C9D" transform="translate(0,0)"/>
<path d="" fill="#9A9999" transform="translate(0,0)"/>
<path d="" fill="#9D9D9D" transform="translate(0,0)"/>
<path d="" fill="#9C9B9B" transform="translate(0,0)"/>
<path d="" fill="#919291" transform="translate(0,0)"/>
<path d="" fill="#8D8F8F" transform="translate(0,0)"/>
<path d="" fill="#9F9E9E" transform="translate(0,0)"/>
<path d="" fill="#9C9D9C" transform="translate(0,0)"/>
<path d="" fill="#9C9C9B" transform="translate(0,0)"/>
<path d="" fill="#9B9B9B" transform="translate(0,0)"/>
<path d="" fill="#8E8E90" transform="translate(0,0)"/>
<path d="" fill="#999B9B" transform="translate(0,0)"/>
<path d="" fill="#9F9FA0" transform="translate(0,0)"/>
<path d="" fill="#9B9B9C" transform="translate(0,0)"/>
<path d="" fill="#9F9E9F" transform="translate(0,0)"/>
<path d="" fill="#9A9C9D" transform="translate(0,0)"/>
<path d="" fill="#9C9A9B" transform="translate(0,0)"/>
<path d="" fill="#9C9C9A" transform="translate(0,0)"/>
<path d="" fill="#999A9A" transform="translate(0,0)"/>
<path d="" fill="#9A9C9A" transform="translate(0,0)"/>
<path d="" fill="#8E8E8F" transform="translate(0,0)"/>
<path d="" fill="#999A9A" transform="translate(0,0)"/>
<path d="" fill="#9A9A9C" transform="translate(0,0)"/>
<path d="" fill="#9C9C9B" transform="translate(0,0)"/>
<path d="" fill="#9A9B9A" transform="translate(0,0)"/>
<path d="" fill="#8D8D8D" transform="translate(0,0)"/>
<path d="" fill="#979799" transform="translate(0,0)"/>
<path d="" fill="#9B9C9D" transform="translate(0,0)"/>
<path d="" fill="#8F8F8E" transform="translate(0,0)"/>
<path d="" fill="#9D9C9A" transform="translate(0,0)"/>
<path d="" fill="#929395" transform="translate(0,0)"/>
<path d="" fill="#9D9C9A" transform="translate(0,0)"/>
<path d="" fill="#999A9A" transform="translate(0,0)"/>
<path d="" fill="#9D9C9E" transform="translate(0,0)"/>
<path d="" fill="#A19FA0" transform="translate(0,0)"/>
<path d="" fill="#9E9D9C" transform="translate(0,0)"/>
<path d="" fill="#939294" transform="translate(0,0)"/>
<path d="" fill="#9A9B9B" transform="translate(0,0)"/>
<path d="" fill="#9D9E9E" transform="translate(0,0)"/>
<path d="" fill="#99999A" transform="translate(0,0)"/>
<path d="" fill="#9D9C9D" transform="translate(0,0)"/>
<path d="" fill="#919294" transform="translate(0,0)"/>
<path d="" fill="#929194" transform="translate(0,0)"/>
<path d="" fill="#9DA09D" transform="translate(0,0)"/>
<path d="" fill="#9D9C9F" transform="translate(0,0)"/>
<path d="" fill="#9A9B9C" transform="translate(0,0)"/>
<path d="" fill="#919092" transform="translate(0,0)"/>
<path d="" fill="#9D9C9C" transform="translate(0,0)"/>
<path d="" fill="#9C9B9C" transform="translate(0,0)"/>
<path d="" fill="#9A989B" transform="translate(0,0)"/>
<path d="" fill="#9B9C9B" transform="translate(0,0)"/>
<path d="" fill="#929293" transform="translate(0,0)"/>
<path d="" fill="#919191" transform="translate(0,0)"/>
<path d="" fill="#999999" transform="translate(0,0)"/>
<path d="" fill="#939092" transform="translate(0,0)"/>
<path d="" fill="#989699" transform="translate(0,0)"/>
<path d="" fill="#949798" transform="translate(0,0)"/>
<path d="" fill="#919393" transform="translate(0,0)"/>
<path d="" fill="#979898" transform="translate(0,0)"/>
<path d="" fill="#919292" transform="translate(0,0)"/>
<path d="" fill="#99989A" transform="translate(0,0)"/>
<path d="" fill="#989999" transform="translate(0,0)"/>
<path d="" fill="#929293" transform="translate(0,0)"/>
<path d="" fill="#939194" transform="translate(0,0)"/>
<path d="" fill="#989797" transform="translate(0,0)"/>
<path d="" fill="#99989A" transform="translate(0,0)"/>
<path d="" fill="#999A9A" transform="translate(0,0)"/>
<path d="" fill="#989B9A" transform="translate(0,0)"/>
<path d="" fill="#8D8D8E" transform="translate(0,0)"/>
<path d="" fill="#999999" transform="translate(0,0)"/>
<path d="" fill="#999999" transform="translate(0,0)"/>
<path d="" fill="#9A999A" transform="translate(0,0)"/>
<path d="" fill="#9A989A" transform="translate(0,0)"/>
<path d="" fill="#9B9A9B" transform="translate(0,0)"/>
<path d="" fill="#999A9E" transform="translate(0,0)"/>
<path d="" fill="#9B9B9C" transform="translate(0,0)"/>
<path d="" fill="#9A9B9A" transform="translate(0,0)"/>
<path d="" fill="#9C999C" transform="translate(0,0)"/>
<path d="" fill="#9A999A" transform="translate(0,0)"/>
<path d="" fill="#9B9A9C" transform="translate(0,0)"/>
<path d="" fill="#9A9E9B" transform="translate(0,0)"/>
<path d="" fill="#9D9D9E" transform="translate(0,0)"/>
<path d="" fill="#9C9B9D" transform="translate(0,0)"/>
<path d="" fill="#9E9C9D" transform="translate(0,0)"/>
<path d="" fill="#9D9D9E" transform="translate(0,0)"/>
<path d="" fill="#9D9C9C" transform="translate(0,0)"/>
<path d="" fill="#9A9A9A" transform="translate(0,0)"/>
<path d="" fill="#9A9A9A" transform="translate(0,0)"/>
<path d="" fill="#9B9B9C" transform="translate(0,0)"/>
<path d="" fill="#9B9A9C" transform="translate(0,0)"/>
<path d="" fill="#979797" transform="translate(0,0)"/>
<path d="" fill="#98999A" transform="translate(0,0)"/>
<path d="" fill="#9B9C9C" transform="translate(0,0)"/>
<path d="" fill="#959798" transform="translate(0,0)"/>
<path d="" fill="#98989A" transform="translate(0,0)"/>
<path d="" fill="#939396" transform="translate(0,0)"/>
<path d="" fill="#939394" transform="translate(0,0)"/>
<path d="" fill="#929294" transform="translate(0,0)"/>
<path d="" fill="#959695" transform="translate(0,0)"/>
<path d="" fill="#8B8C8B" transform="translate(0,0)"/>
<path d="" fill="#8C8E8D" transform="translate(0,0)"/>
</svg>
